<svg xmlns="http://www.w3.org/2000/svg" width="20" height="18" viewBox="0 0 20 18" fill="none">
<g id="atom/icon/nosotros">
<path id="Icon (Stroke)" fill-rule="evenodd" clip-rule="evenodd" d="M10 1.88889C8.99585 1.88889 8.18182 2.73457 8.18182 3.77778C8.18182 4.82098 8.99585 5.66667 10 5.66667C11.0042 5.66667 11.8182 4.82098 11.8182 3.77778C11.8182 2.73457 11.0042 1.88889 10 1.88889ZM6.36364 3.77778C6.36364 1.69137 7.99169 0 10 0C12.0083 0 13.6364 1.69137 13.6364 3.77778C13.6364 5.86419 12.0083 7.55556 10 7.55556C7.99169 7.55556 6.36364 5.86419 6.36364 3.77778ZM3.63636 5.66667C3.13429 5.66667 2.72727 6.08951 2.72727 6.61111C2.72727 7.13271 3.13429 7.55556 3.63636 7.55556C4.13844 7.55556 4.54545 7.13271 4.54545 6.61111C4.54545 6.08951 4.13844 5.66667 3.63636 5.66667ZM0.909091 6.61111C0.909091 5.0463 2.13013 3.77778 3.63636 3.77778C5.14259 3.77778 6.36364 5.0463 6.36364 6.61111C6.36364 8.17592 5.14259 9.44444 3.63636 9.44444C2.13013 9.44444 0.909091 8.17592 0.909091 6.61111ZM16.3636 5.66667C15.8616 5.66667 15.4545 6.08951 15.4545 6.61111C15.4545 7.13271 15.8616 7.55556 16.3636 7.55556C16.8657 7.55556 17.2727 7.13271 17.2727 6.61111C17.2727 6.08951 16.8657 5.66667 16.3636 5.66667ZM13.6364 6.61111C13.6364 5.0463 14.8574 3.77778 16.3636 3.77778C17.8699 3.77778 19.0909 5.0463 19.0909 6.61111C19.0909 8.17592 17.8699 9.44444 16.3636 9.44444C14.8574 9.44444 13.6364 8.17592 13.6364 6.61111ZM10 10.3889C8.47039 10.3889 7.15924 11.3704 6.6224 12.7637C6.45575 13.1962 6.36364 13.6691 6.36364 14.1667V15.1111H13.6364V14.1667C13.6364 13.6691 13.5442 13.1962 13.3776 12.7637C12.8408 11.3704 11.5296 10.3889 10 10.3889ZM15.4545 15.1111H18.1818V14.1667C18.1818 13.1235 17.3678 12.2778 16.3636 12.2778C15.949 12.2778 15.567 12.4214 15.2607 12.6648C15.3871 13.1438 15.4545 13.6476 15.4545 14.1667V15.1111ZM14.4806 10.9345C13.4959 9.46386 11.857 8.5 10 8.5C8.143 8.5 6.50413 9.46386 5.51943 10.9345C4.97037 10.5886 4.32572 10.3889 3.63636 10.3889C1.62806 10.3889 0 12.0803 0 14.1667V16.0556C0 16.5772 0.407014 17 0.909091 17H19.0909C19.593 17 20 16.5772 20 16.0556V14.1667C20 12.0803 18.3719 10.3889 16.3636 10.3889C15.6743 10.3889 15.0296 10.5886 14.4806 10.9345ZM4.73934 12.6648C4.43302 12.4214 4.05097 12.2778 3.63636 12.2778C2.63221 12.2778 1.81818 13.1235 1.81818 14.1667V15.1111H4.54545V14.1667C4.54545 13.6476 4.61285 13.1438 4.73934 12.6648Z" fill="#000617"/>
</g>
</svg>