<svg xmlns="http://www.w3.org/2000/svg" width="20" height="20" viewBox="0 0 20 20" fill="none">
  <path fill-rule="evenodd" clip-rule="evenodd" d="M10 2C5.58172 2 2 5.58172 2 10C2 14.4183 5.58172 18 10 18C14.4183 18 18 14.4183 18 10C18 5.58172 14.4183 2 10 2ZM0 10C2.38419e-07 4.47715 4.47715 -2.38419e-07 10 0C15.5228 2.38419e-07 20 4.47715 20 10C20 15.5228 15.5228 20 10 20C4.47715 20 -2.38419e-07 15.5228 0 10ZM10 5C10.5523 5 11 5.44772 11 6L11 11.5858L12.2929 10.2929C12.6834 9.90237 13.3166 9.90237 13.7071 10.2929C14.0976 10.6834 14.0976 11.3166 13.7071 11.7071L10.7071 14.7071C10.3166 15.0976 9.68342 15.0976 9.29289 14.7071L6.29289 11.7071C5.90237 11.3166 5.90237 10.6834 6.29289 10.2929C6.68342 9.90237 7.31658 9.90237 7.70711 10.2929L9 11.5858L9 6C9 5.44772 9.44772 5 10 5Z" fill="#000617"/>
</svg>