<svg xmlns="http://www.w3.org/2000/svg" width="20" height="20" viewBox="0 0 20 20" fill="none">
  <path fill-rule="evenodd" clip-rule="evenodd" d="M10 18C14.4183 18 18 14.4183 18 10C18 5.58172 14.4183 2 10 2C5.58172 2 2 5.58172 2 10C2 14.4183 5.58172 18 10 18ZM20 10C20 15.5228 15.5228 20 10 20C4.47715 20 0 15.5228 0 10C0 4.47715 4.47715 0 10 0C15.5228 0 20 4.47715 20 10ZM10 15C9.44771 15 9 14.5523 9 14L9 8.41421L7.70711 9.70711C7.31658 10.0976 6.68342 10.0976 6.29289 9.70711C5.90237 9.31658 5.90237 8.68342 6.29289 8.29289L9.29289 5.29289C9.68342 4.90237 10.3166 4.90237 10.7071 5.29289L13.7071 8.29289C14.0976 8.68342 14.0976 9.31658 13.7071 9.70711C13.3166 10.0976 12.6834 10.0976 12.2929 9.70711L11 8.41421L11 14C11 14.5523 10.5523 15 10 15Z" fill="#000617"/>
</svg>