<svg width="24" height="24" viewBox="0 0 24 24" fill="none" xmlns="http://www.w3.org/2000/svg">
<path fill-rule="evenodd" clip-rule="evenodd" d="M2 5.11111C2 4.49746 2.49746 4 3.11111 4H20.8889C21.5025 4 22 4.49746 22 5.11111C22 5.72476 21.5025 6.22222 20.8889 6.22222H3.11111C2.49746 6.22222 2 5.72476 2 5.11111ZM2 11.7778C2 11.1641 2.49746 10.6667 3.11111 10.6667H20.8889C21.5025 10.6667 22 11.1641 22 11.7778C22 12.3914 21.5025 12.8889 20.8889 12.8889H3.11111C2.49746 12.8889 2 12.3914 2 11.7778ZM2 18.4444C2 17.8308 2.49746 17.3333 3.11111 17.3333H20.8889C21.5025 17.3333 22 17.8308 22 18.4444C22 19.0581 21.5025 19.5556 20.8889 19.5556H3.11111C2.49746 19.5556 2 19.0581 2 18.4444Z" fill="#000617"/>
</svg>
