<svg xmlns="http://www.w3.org/2000/svg" width="33" height="32" viewBox="0 0 33 32" fill="none">
<g id="atom/icon/backup">
<path id="Icon (Stroke)" fill-rule="evenodd" clip-rule="evenodd" d="M15.3182 6.18182C12.9082 6.18182 10.9545 8.13548 10.9545 10.5455C10.9545 10.8759 10.9911 11.1964 11.0599 11.5038C11.1914 12.0916 10.8218 12.6748 10.2341 12.8066C8.7729 13.1344 7.68182 14.4411 7.68182 16C7.68182 17.8075 9.14707 19.2727 10.9545 19.2727C11.557 19.2727 12.0455 19.7611 12.0455 20.3636C12.0455 20.9661 11.557 21.4545 10.9545 21.4545C7.94208 21.4545 5.5 19.0125 5.5 16C5.5 13.7566 6.85352 11.8313 8.78784 10.9931C8.77781 10.8451 8.77273 10.6958 8.77273 10.5455C8.77273 6.9305 11.7032 4 15.3182 4C18.184 4 20.6178 5.84085 21.505 8.40414C24.7753 8.7682 27.3182 11.5417 27.3182 14.9091C27.3182 18.077 25.0688 20.7171 22.0807 21.3236C21.4902 21.4435 20.9144 21.062 20.7945 20.4715C20.6747 19.8811 21.0562 19.3053 21.6466 19.1854C23.6379 18.7812 25.1364 17.0189 25.1364 14.9091C25.1364 12.4991 23.1827 10.5455 20.7727 10.5455C20.7435 10.5455 20.7143 10.5457 20.6852 10.5463C20.1583 10.5566 19.6994 10.1889 19.5947 9.67242C19.1908 7.68068 17.4283 6.18182 15.3182 6.18182ZM15.6377 13.0468C16.0637 12.6208 16.7545 12.6208 17.1805 13.0468L20.4532 16.3195C20.8792 16.7455 20.8792 17.4363 20.4532 17.8623C20.0272 18.2883 19.3365 18.2883 18.9104 17.8623L17.5 16.4519L17.5 26.9091C17.5 27.5116 17.0116 28 16.4091 28C15.8066 28 15.3182 27.5116 15.3182 26.9091L15.3182 16.4519L13.9078 17.8623C13.4817 18.2883 12.791 18.2883 12.365 17.8623C11.9389 17.4363 11.9389 16.7455 12.365 16.3195L15.6377 13.0468Z" fill="#FAFAFA"/>
</g>
</svg>