<svg xmlns="http://www.w3.org/2000/svg" width="32" height="32" viewBox="0 0 32 32" fill="none">
<g id="atom/icon/doc">
<path id="Icon (Stroke)" fill-rule="evenodd" clip-rule="evenodd" d="M9.6 6.4C8.93726 6.4 8.4 6.93726 8.4 7.6V24.4C8.4 25.0627 8.93726 25.6 9.6 25.6H21.6C22.2627 25.6 22.8 25.0627 22.8 24.4L22.8 12.8971L16.3029 6.4H9.6ZM6 7.6C6 5.61177 7.61178 4 9.6 4H16.3029C16.9395 4 17.5499 4.25286 18 4.70294L24.4971 11.2C24.9471 11.6501 25.2 12.2605 25.2 12.8971V24.4C25.2 26.3882 23.5882 28 21.6 28H9.6C7.61178 28 6 26.3882 6 24.4V7.6ZM10.8 16C10.8 15.3373 11.3373 14.8 12 14.8H19.2C19.8627 14.8 20.4 15.3373 20.4 16C20.4 16.6627 19.8627 17.2 19.2 17.2H12C11.3373 17.2 10.8 16.6627 10.8 16ZM10.8 20.8C10.8 20.1373 11.3373 19.6 12 19.6H19.2C19.8627 19.6 20.4 20.1373 20.4 20.8C20.4 21.4627 19.8627 22 19.2 22H12C11.3373 22 10.8 21.4627 10.8 20.8Z" fill="#FAFAFA"/>
</g>
</svg>