<svg xmlns="http://www.w3.org/2000/svg" width="23" height="22" viewBox="0 0 23 22" fill="none">
<g id="logos:facebook" clip-path="url(#clip0_635_2213)">
<path id="Vector" d="M22.3335 11C22.3335 4.92491 17.4086 0 11.3335 0C5.2584 0 0.333496 4.92491 0.333496 11C0.333496 16.4904 4.35606 21.0412 9.61475 21.8664V14.1797H6.82178V11H9.61475V8.57656C9.61475 5.81969 11.257 4.29688 13.7697 4.29688C14.9731 4.29688 16.2319 4.51172 16.2319 4.51172V7.21875H14.8449C13.4784 7.21875 13.0522 8.0667 13.0522 8.93664V11H16.103L15.6153 14.1797H13.0522V21.8664C18.3109 21.0412 22.3335 16.4905 22.3335 11Z" fill="#1877F2"/>
<path id="Vector_2" d="M15.6153 14.1797L16.103 11H13.0522V8.93664C13.0522 8.06661 13.4784 7.21875 14.8449 7.21875H16.2319V4.51172C16.2319 4.51172 14.9731 4.29688 13.7696 4.29688C11.257 4.29688 9.61475 5.81969 9.61475 8.57656V11H6.82178V14.1797H9.61475V21.8664C10.1833 21.9555 10.758 22.0002 11.3335 22C11.909 22.0002 12.4837 21.9555 13.0522 21.8664V14.1797H15.6153Z" fill="white"/>
</g>
<defs>
<clipPath id="clip0_635_2213">
<rect width="22" height="22" fill="white" transform="translate(0.333496)"/>
</clipPath>
</defs>
</svg>