<svg width="33" height="32" viewBox="0 0 33 32" fill="none" xmlns="http://www.w3.org/2000/svg">
<rect x="0.833496" width="32" height="32" rx="4" fill="#E4E4E4"/>
<g clip-path="url(#clip0_1158_1244)">
<path d="M26.5835 16.6094C26.5835 18.7037 25.9872 20.5872 24.7947 22.2597C23.6032 23.9322 22.0629 25.089 20.1747 25.7312C19.9554 25.7734 19.7941 25.7444 19.6929 25.644C19.6429 25.5955 19.6036 25.5371 19.5773 25.4725C19.551 25.408 19.5383 25.3387 19.5401 25.269V22.6281C19.5401 21.819 19.3282 21.2265 18.9054 20.8515C19.3278 20.8092 19.7462 20.7339 20.1569 20.6265C20.5263 20.5262 20.9088 20.364 21.3035 20.139C21.683 19.9267 22.0186 19.6442 22.2926 19.3065C22.5569 18.9765 22.7726 18.5387 22.9394 17.9922C23.1063 17.4456 23.1897 16.8184 23.1897 16.1097C23.1897 15.1 22.8682 14.2403 22.226 13.5315C22.526 12.7722 22.4941 11.9219 22.1276 10.9787C21.8997 10.9037 21.5707 10.9506 21.1394 11.1165C20.7483 11.2635 20.3721 11.4478 20.0163 11.6669L19.5522 11.9669C18.79 11.7496 18.0011 11.6404 17.2085 11.6425C16.4159 11.6407 15.6269 11.7502 14.8647 11.9678C14.6952 11.8504 14.5223 11.7378 14.3463 11.6303C14.1307 11.4962 13.7904 11.3359 13.3263 11.1484C12.8632 10.9609 12.5126 10.9047 12.2763 10.9797C11.9191 11.9219 11.8901 12.7722 12.1919 13.5315C11.5488 14.2403 11.2263 15.1 11.2263 16.1097C11.2263 16.8184 11.3107 17.4437 11.4776 17.9865C11.6444 18.5284 11.8582 18.9662 12.1179 19.3C12.3872 19.6412 12.721 19.926 13.1004 20.1381C13.4951 20.3631 13.8785 20.5262 14.2479 20.6256C14.6182 20.7269 15.0354 20.8019 15.4994 20.8515C15.1741 21.1515 14.9744 21.5819 14.9013 22.1406C14.7265 22.2253 14.542 22.2883 14.3519 22.3281C14.1229 22.3731 13.8897 22.3941 13.6563 22.3909C13.3872 22.3909 13.1219 22.3009 12.8566 22.1219C12.5922 21.9419 12.3663 21.6812 12.1788 21.34C12.0323 21.0819 11.8303 20.8597 11.5872 20.6894C11.3472 20.5225 11.1457 20.4222 10.9826 20.3894L10.7388 20.3519C10.5682 20.3519 10.4501 20.3706 10.3844 20.4081C10.3188 20.4456 10.3001 20.4925 10.3235 20.5515C10.3511 20.6152 10.388 20.6742 10.4332 20.7269C10.48 20.7832 10.5335 20.8335 10.5926 20.8769L10.6769 20.9387C10.8569 21.0231 11.0332 21.1815 11.2085 21.415C11.3838 21.6484 11.5122 21.8612 11.5929 22.0525L11.7147 22.3403C11.8207 22.6572 11.9997 22.9141 12.2529 23.11C12.5051 23.3069 12.7779 23.4315 13.0704 23.485C13.3629 23.5394 13.646 23.5694 13.9188 23.5731C14.1907 23.5769 14.4176 23.5628 14.5966 23.5291L14.8769 23.4794C14.8769 23.7962 14.8788 24.1675 14.8835 24.5931L14.8891 25.2681C14.8891 25.4181 14.8366 25.5437 14.7297 25.6431C14.6247 25.7444 14.4616 25.7734 14.2422 25.7312C12.3541 25.089 10.8138 23.9312 9.62225 22.2597C8.42975 20.5872 7.8335 18.7037 7.8335 16.6094C7.8335 14.8656 8.25256 13.2587 9.09068 11.7859C9.90207 10.3414 11.0789 9.13547 12.5032 8.28905C13.923 7.43434 15.5513 6.98826 17.2085 6.99999C18.866 6.98809 20.4946 7.43418 21.9147 8.28905C23.3387 9.1356 24.5152 10.3415 25.3263 11.7859C26.1644 13.2578 26.5835 14.8665 26.5835 16.6094Z" fill="black"/>
</g>
<defs>
<clipPath id="clip0_1158_1244">
<rect width="18.75" height="18.75" fill="white" transform="translate(7.8335 7)"/>
</clipPath>
</defs>
</svg>
