<svg xmlns="http://www.w3.org/2000/svg" width="24" height="24" viewBox="0 0 24 24" fill="none">
<g id="atom/icon/home">
<path id="Icon (Stroke)" fill-rule="evenodd" clip-rule="evenodd" d="M11.1515 0.351472C11.6201 -0.117157 12.3799 -0.117157 12.8485 0.351472L23.6485 11.1515C24.1172 11.6201 24.1172 12.3799 23.6485 12.8485C23.1799 13.3172 22.4201 13.3172 21.9515 12.8485L21.6 12.4971V21.6C21.6 22.9255 20.5255 24 19.2 24H4.8C3.47452 24 2.4 22.9255 2.4 21.6V12.4971L2.04853 12.8485C1.5799 13.3172 0.820101 13.3172 0.351472 12.8485C-0.117157 12.3799 -0.117157 11.6201 0.351472 11.1515L11.1515 0.351472ZM4.8 10.0971V21.6H8.4V16.8C8.4 15.4745 9.47452 14.4 10.8 14.4H13.2C14.5255 14.4 15.6 15.4745 15.6 16.8V21.6H19.2V10.0971L12 2.89706L4.8 10.0971ZM13.2 21.6V16.8H10.8V21.6H13.2Z" fill="#000617"/>
</g>
</svg>