<svg xmlns="http://www.w3.org/2000/svg" width="23" height="22" viewBox="0 0 23 22" fill="none">
<g id="skill-icons:instagram" clip-path="url(#clip0_635_2198)">
<g id="Group">
<path id="Vector" d="M17.1772 0H5.48975C2.64203 0 0.333496 2.30853 0.333496 5.15625V16.8438C0.333496 19.6915 2.64203 22 5.48975 22H17.1772C20.025 22 22.3335 19.6915 22.3335 16.8438V5.15625C22.3335 2.30853 20.025 0 17.1772 0Z" fill="url(#paint0_radial_635_2198)"/>
<path id="Vector_2" d="M17.1772 0H5.48975C2.64203 0 0.333496 2.30853 0.333496 5.15625V16.8438C0.333496 19.6915 2.64203 22 5.48975 22H17.1772C20.025 22 22.3335 19.6915 22.3335 16.8438V5.15625C22.3335 2.30853 20.025 0 17.1772 0Z" fill="url(#paint1_radial_635_2198)"/>
<path id="Vector_3" d="M11.3343 2.40625C9.00038 2.40625 8.70742 2.41648 7.79081 2.45816C6.87592 2.50009 6.25141 2.6449 5.70502 2.85742C5.13972 3.07691 4.66028 3.37055 4.18264 3.84837C3.70457 4.32609 3.41092 4.80554 3.19075 5.37058C2.97762 5.91714 2.83264 6.54191 2.79148 7.45637C2.75049 8.37306 2.73975 8.66611 2.73975 11.0001C2.73975 13.3341 2.75006 13.6261 2.79165 14.5427C2.83376 15.4576 2.97857 16.0821 3.19092 16.6285C3.41057 17.1938 3.70422 17.6732 4.18204 18.1509C4.65959 18.6289 5.13904 18.9233 5.7039 19.1427C6.25072 19.3553 6.87532 19.5001 7.79004 19.542C8.70673 19.5837 8.99943 19.5939 11.3332 19.5939C13.6674 19.5939 13.9594 19.5837 14.876 19.542C15.7909 19.5001 16.4161 19.3553 16.9629 19.1427C17.528 18.9233 18.0067 18.6289 18.4842 18.1509C18.9623 17.6732 19.2558 17.1938 19.4761 16.6287C19.6873 16.0821 19.8324 15.4574 19.8753 14.5429C19.9165 13.6262 19.9272 13.3341 19.9272 11.0001C19.9272 8.66611 19.9165 8.37323 19.8753 7.45654C19.8324 6.54165 19.6873 5.91723 19.4761 5.37084C19.2558 4.80554 18.9623 4.32609 18.4842 3.84837C18.0062 3.37038 17.5281 3.07673 16.9624 2.85751C16.4146 2.6449 15.7897 2.50001 14.8748 2.45816C13.9581 2.41648 13.6663 2.40625 11.3316 2.40625H11.3343ZM10.5633 3.95493C10.7922 3.95459 11.0475 3.95493 11.3343 3.95493C13.6289 3.95493 13.9008 3.96318 14.8069 4.00434C15.6448 4.04267 16.0996 4.18266 16.4025 4.30031C16.8036 4.45603 17.0895 4.64226 17.3901 4.94313C17.6909 5.24391 17.877 5.53034 18.0332 5.93141C18.1508 6.23391 18.291 6.68869 18.3292 7.52658C18.3703 8.43253 18.3793 8.70461 18.3793 10.9981C18.3793 13.2916 18.3703 13.5638 18.3292 14.4696C18.2908 15.3075 18.1508 15.7623 18.0332 16.0649C17.8775 16.466 17.6909 16.7515 17.3901 17.0521C17.0893 17.3529 16.8038 17.5391 16.4025 17.6949C16.0999 17.813 15.6448 17.9527 14.8069 17.991C13.901 18.0322 13.6289 18.0411 11.3343 18.0411C9.03957 18.0411 8.76757 18.0322 7.86171 17.991C7.02382 17.9523 6.56904 17.8124 6.26585 17.6947C5.86486 17.5389 5.57835 17.3528 5.27757 17.052C4.97678 16.7512 4.79064 16.4655 4.6345 16.0642C4.51685 15.7616 4.37668 15.3068 4.33853 14.469C4.29736 13.563 4.28911 13.2909 4.28911 10.996C4.28911 8.70109 4.29736 8.43038 4.33853 7.52443C4.37686 6.68654 4.51685 6.23176 4.6345 5.92883C4.7903 5.52776 4.97679 5.24133 5.27765 4.94055C5.57843 4.63977 5.86486 4.45354 6.26593 4.29748C6.56886 4.17931 7.02382 4.03966 7.86171 4.00116C8.65448 3.96533 8.96171 3.95459 10.5633 3.95278V3.95493ZM15.9216 5.38184C15.3523 5.38184 14.8904 5.84332 14.8904 6.41274C14.8904 6.98208 15.3523 7.44399 15.9216 7.44399C16.4909 7.44399 16.9529 6.98208 16.9529 6.41274C16.9529 5.84341 16.4909 5.38149 15.9216 5.38149V5.38184ZM11.3343 6.58677C8.89708 6.58677 6.92103 8.56281 6.92103 11.0001C6.92103 13.4374 8.89708 15.4125 11.3343 15.4125C13.7715 15.4125 15.7469 13.4374 15.7469 11.0001C15.7469 8.5629 13.7714 6.58677 11.3341 6.58677H11.3343ZM11.3343 8.13545C12.9163 8.13545 14.1989 9.41789 14.1989 11.0001C14.1989 12.5821 12.9163 13.8647 11.3343 13.8647C9.75216 13.8647 8.46972 12.5821 8.46972 11.0001C8.46972 9.41789 9.75216 8.13545 11.3343 8.13545Z" fill="white"/>
</g>
</g>
<defs>
<radialGradient id="paint0_radial_635_2198" cx="0" cy="0" r="1" gradientUnits="userSpaceOnUse" gradientTransform="translate(6.17725 23.6944) rotate(-90) scale(21.8036 20.2791)">
<stop stop-color="#FFDD55"/>
<stop offset="0.1" stop-color="#FFDD55"/>
<stop offset="0.5" stop-color="#FF543E"/>
<stop offset="1" stop-color="#C837AB"/>
</radialGradient>
<radialGradient id="paint1_radial_635_2198" cx="0" cy="0" r="1" gradientUnits="userSpaceOnUse" gradientTransform="translate(-3.35159 1.58477) rotate(78.681) scale(9.74634 40.1747)">
<stop stop-color="#3771C8"/>
<stop offset="0.128" stop-color="#3771C8"/>
<stop offset="1" stop-color="#6600FF" stop-opacity="0"/>
</radialGradient>
<clipPath id="clip0_635_2198">
<rect width="22" height="22" fill="white" transform="translate(0.333496)"/>
</clipPath>
</defs>
</svg>