<svg width="33" height="32" viewBox="0 0 33 32" fill="none" xmlns="http://www.w3.org/2000/svg">
<rect x="0.5" width="32" height="32" rx="4" fill="#E4E4E4"/>
<path d="M24.368 6.625H8.63203C7.8 6.625 7.125 7.3 7.125 8.13203V23.868C7.125 24.7 7.8 25.375 8.63203 25.375H24.368C25.2 25.375 25.875 24.7 25.875 23.868V8.13203C25.875 7.3 25.2 6.625 24.368 6.625ZM24.368 23.875C13.8727 23.8727 8.625 23.8703 8.625 23.868C8.62734 13.3727 8.62969 8.125 8.63203 8.125C19.1273 8.12734 24.375 8.12969 24.375 8.13203C24.3727 18.6273 24.3703 23.875 24.368 23.875ZM9.90469 13.6539H12.6867V22.6023H9.90469V13.6539ZM11.2969 12.4305C12.1852 12.4305 12.9094 11.7086 12.9094 10.818C12.9094 10.6062 12.8677 10.3965 12.7866 10.2009C12.7056 10.0053 12.5868 9.82749 12.4371 9.67776C12.2874 9.52802 12.1096 9.40925 11.914 9.32821C11.7183 9.24718 11.5086 9.20547 11.2969 9.20547C11.0851 9.20547 10.8754 9.24718 10.6798 9.32821C10.4842 9.40925 10.3064 9.52802 10.1567 9.67776C10.0069 9.82749 9.88815 10.0053 9.80712 10.2009C9.72608 10.3965 9.68437 10.6062 9.68437 10.818C9.68203 11.7086 10.4039 12.4305 11.2969 12.4305ZM17.2102 18.175C17.2102 17.0078 17.4328 15.8781 18.8789 15.8781C20.3039 15.8781 20.325 17.2117 20.325 18.25V22.6023H23.1047V17.6945C23.1047 15.2852 22.5844 13.4312 19.7695 13.4312C18.4172 13.4312 17.5102 14.1742 17.1375 14.8773H17.1V13.6539H14.4305V22.6023H17.2102V18.175Z" fill="black"/>
</svg>
