<svg xmlns="http://www.w3.org/2000/svg" width="116" height="42" viewBox="0 0 116 42" fill="none">
<g id="Frame 142" clip-path="url(#clip0_1296_4055)">
<path id="Vector" d="M63.3681 32.7316V34.5178H62.7598V30.528H63.6658C63.872 30.5221 64.0783 30.5394 64.2806 30.5798C64.4172 30.6075 64.5456 30.6662 64.656 30.7513C64.7817 30.8492 64.8808 30.9771 64.944 31.1234C65.011 31.2821 65.0452 31.4527 65.0443 31.625C65.0602 31.8952 64.9774 32.162 64.8113 32.3757C64.6338 32.5673 64.3893 32.6832 64.1285 32.6993L65.5006 34.5146H64.7854L63.4555 32.7284L63.3681 32.7316ZM63.4069 32.2268H63.5267C63.7609 32.2497 63.997 32.2084 64.2094 32.1071C64.2703 32.0558 64.3175 31.9903 64.3469 31.9163C64.3762 31.8423 64.3868 31.7623 64.3777 31.6832C64.3873 31.5967 64.3758 31.5091 64.3442 31.428C64.3127 31.3469 64.262 31.2746 64.1965 31.2172C63.9916 31.1066 63.7585 31.0593 63.5267 31.0813H63.4069V32.2268Z" fill="#1F294E"/>
<path id="Vector_2" d="M65.9243 34.5178V30.528H68.1506V31.0781H66.5715V32.078H68.1506V32.6475H66.5715V33.9419H68.1506V34.5243L65.9243 34.5178Z" fill="#1F294E"/>
<path id="Vector_3" d="M68.9336 34.5178V30.528H69.8073C70.2093 30.5133 70.6117 30.5415 71.0078 30.6121C71.2296 30.664 71.4381 30.7622 71.6194 30.9001C71.8506 31.0768 72.0314 31.3111 72.1436 31.5797C72.2676 31.8789 72.3282 32.2007 72.3215 32.5245C72.3278 32.8473 72.2672 33.1679 72.1436 33.4662C72.0287 33.7322 71.8483 33.9648 71.6194 34.1425C71.4425 34.2778 71.2399 34.3758 71.024 34.4305C70.6812 34.5 70.3315 34.5293 69.982 34.5178H68.9336ZM69.5808 33.9321H70.1244C70.3504 33.9386 70.5764 33.918 70.7975 33.8707C70.9416 33.8346 71.0755 33.766 71.189 33.67C71.3409 33.5404 71.4577 33.3745 71.5288 33.1879C71.6078 32.9736 71.6462 32.7464 71.642 32.5181C71.646 32.2908 71.6076 32.0647 71.5288 31.8515C71.4586 31.6643 71.3416 31.4983 71.189 31.3693C71.0714 31.2722 70.933 31.2035 70.7845 31.1687C70.5419 31.119 70.2942 31.0983 70.0467 31.1072H69.5808V33.9321Z" fill="#1F294E"/>
<path id="Vector_4" d="M76.1111 31.0781V34.5178H75.4639V31.0781H74.4058V30.528H77.1692V31.0781H76.1111Z" fill="#1F294E"/>
<path id="Vector_5" d="M77.7061 34.5178V30.528H79.9323V31.0781H78.3565V32.078H79.9323V32.6475H78.3565V33.9419H79.9323V34.5243L77.7061 34.5178Z" fill="#1F294E"/>
<path id="Vector_6" d="M83.9192 31.4955C83.7461 31.347 83.5492 31.2289 83.3367 31.146C83.13 31.0679 82.9106 31.0284 82.6896 31.0296C82.4929 31.0218 82.2967 31.0548 82.1135 31.1267C81.9303 31.1985 81.7639 31.3076 81.6249 31.447C81.487 31.5914 81.3796 31.7621 81.309 31.9489C81.2384 32.1356 81.2061 32.3347 81.214 32.5342C81.2072 32.7299 81.2392 32.925 81.308 33.1082C81.3769 33.2915 81.4813 33.4593 81.6152 33.6021C81.7441 33.7386 81.9004 33.8463 82.0738 33.9183C82.2472 33.9902 82.4339 34.0247 82.6216 34.0195C82.8516 34.02 83.0797 33.9783 83.2947 33.8965C83.5192 33.8054 83.727 33.6774 83.9095 33.5179V34.2493C83.737 34.3748 83.5444 34.47 83.34 34.5308C83.1234 34.5934 82.8988 34.6239 82.6734 34.6214C82.384 34.625 82.0964 34.5745 81.8256 34.4725C81.57 34.3746 81.3375 34.2247 81.1428 34.0325C80.948 33.8409 80.7959 33.6105 80.6963 33.3561C80.5894 33.0943 80.5356 32.8138 80.5377 32.531C80.535 32.2481 80.5889 31.9676 80.6963 31.7059C80.7982 31.4512 80.9526 31.2208 81.1493 31.0296C81.3427 30.834 81.5754 30.6818 81.832 30.583C82.0961 30.4805 82.3772 30.4289 82.6604 30.4309C82.8888 30.4304 83.1159 30.4653 83.3335 30.5345C83.5539 30.6123 83.762 30.7213 83.9515 30.8581L83.9192 31.4955Z" fill="#1F294E"/>
<path id="Vector_7" d="M84.7603 34.5178V30.3695L87.2972 32.8093C87.3651 32.8773 87.4363 32.9517 87.5043 33.0293C87.5722 33.107 87.6499 33.1944 87.7308 33.2914V30.528H88.3294V34.6732L85.7407 32.188C85.6698 32.1219 85.6028 32.0517 85.5401 31.9777C85.4743 31.9024 85.4127 31.8236 85.3557 31.7415V34.5178H84.7603Z" fill="#1F294E"/>
<path id="Vector_8" d="M93.3743 32.531C93.3761 32.8065 93.3222 33.0794 93.2158 33.3335C93.1078 33.5881 92.9492 33.8182 92.7498 34.0098C92.5491 34.2048 92.3129 34.3597 92.0541 34.4661C91.797 34.5697 91.5223 34.6224 91.2451 34.6214C90.9624 34.6229 90.682 34.5691 90.42 34.4628C90.1628 34.3583 89.9287 34.2044 89.7307 34.0098C89.532 33.8196 89.3745 33.5905 89.268 33.3367C89.1612 33.0817 89.1073 32.8076 89.1094 32.531C89.1073 32.2534 89.1612 31.9783 89.268 31.722C89.3736 31.4669 89.5312 31.2366 89.7307 31.0457C89.9287 30.8497 90.1642 30.6956 90.4232 30.5927C90.6846 30.4885 90.9637 30.4357 91.2451 30.4374C91.5244 30.4363 91.8012 30.4891 92.0605 30.5927C92.3181 30.6965 92.5524 30.8505 92.7498 31.0457C92.9495 31.2397 93.108 31.4719 93.2158 31.7285C93.3222 31.9826 93.3761 32.2556 93.3743 32.531ZM92.698 32.531C92.6997 32.3336 92.6623 32.1379 92.588 31.955C92.5129 31.7736 92.403 31.6087 92.2644 31.4696C92.1312 31.333 91.973 31.2231 91.7984 31.1461C91.6212 31.0714 91.4309 31.0329 91.2386 31.0328C91.0451 31.028 90.8525 31.0621 90.6724 31.1331C90.4949 31.2085 90.3343 31.3185 90.1999 31.4567C90.0605 31.5938 89.9504 31.7579 89.8763 31.9388C89.802 32.1228 89.7646 32.3197 89.7663 32.5181C89.765 32.7144 89.8023 32.909 89.8763 33.0908C89.952 33.2709 90.0619 33.4347 90.1999 33.573C90.3346 33.7108 90.4951 33.8208 90.6724 33.8965C90.8506 33.9711 91.0422 34.0086 91.2354 34.0066C91.4254 34.0076 91.6136 33.9702 91.7887 33.8965C91.9655 33.82 92.1259 33.7101 92.2612 33.573C92.3997 33.4339 92.5097 33.269 92.5848 33.0876C92.6579 32.911 92.6963 32.7221 92.698 32.531Z" fill="#1F294E"/>
<path id="Vector_9" d="M94.1572 34.5178V30.528H94.8044V33.9354H96.2573V34.5178H94.1572Z" fill="#1F294E"/>
<path id="Vector_10" d="M100.91 32.531C100.912 32.8065 100.858 33.0794 100.752 33.3335C100.644 33.5881 100.485 33.8182 100.286 34.0098C100.086 34.204 99.8508 34.3588 99.5934 34.4661C99.3351 34.5694 99.0594 34.6221 98.7812 34.6214C98.4994 34.6233 98.2201 34.5694 97.9593 34.4628C97.7008 34.3591 97.4654 34.2051 97.2668 34.0098C97.0691 33.8187 96.9117 33.5898 96.8041 33.3367C96.6988 33.0812 96.6449 32.8074 96.6455 32.531C96.6449 32.2536 96.6988 31.9787 96.8041 31.7221C96.9109 31.4676 97.0683 31.2375 97.2668 31.0458C97.4648 30.8497 97.7003 30.6956 97.9593 30.5927C98.2207 30.4885 98.4998 30.4357 98.7812 30.4374C99.0604 30.4363 99.3373 30.4891 99.5966 30.5927C99.8546 30.6957 100.089 30.8498 100.286 31.0458C100.486 31.2397 100.644 31.4719 100.752 31.7285C100.858 31.9826 100.912 32.2556 100.91 32.531ZM100.234 32.531C100.236 32.3336 100.198 32.1379 100.124 31.955C100.05 31.773 99.9401 31.6078 99.8005 31.4696C99.6685 31.3316 99.51 31.2215 99.3345 31.1461C99.1573 31.0714 98.967 31.0329 98.7747 31.0328C98.5823 31.0322 98.3919 31.0707 98.2149 31.1461C98.036 31.2205 97.8742 31.3306 97.7392 31.4696C97.5998 31.6068 97.4897 31.7708 97.4157 31.9518C97.3413 32.1358 97.3039 32.3326 97.3056 32.531C97.3043 32.7273 97.3417 32.922 97.4157 33.1038C97.4913 33.2839 97.6012 33.4476 97.7392 33.5859C97.8745 33.7231 98.0349 33.8329 98.2117 33.9095C98.39 33.9837 98.5815 34.0212 98.7747 34.0195C98.9647 34.0209 99.153 33.9835 99.328 33.9095C99.5048 33.8329 99.6652 33.7231 99.8005 33.5859C99.9401 33.4477 100.05 33.2826 100.124 33.1005C100.198 32.9198 100.235 32.7262 100.234 32.531ZM98.3961 30.1332L98.9138 29.3922H99.5254L98.7294 30.1332H98.3961Z" fill="#1F294E"/>
<path id="Vector_11" d="M103.903 32.4728H105.486C105.486 32.4987 105.486 32.5375 105.486 32.586C105.486 32.7155 105.486 32.8028 105.486 32.8481C105.499 33.0855 105.463 33.323 105.38 33.5458C105.297 33.7685 105.169 33.9717 105.004 34.1425C104.819 34.3057 104.604 34.4309 104.371 34.5109C104.137 34.5909 103.891 34.624 103.645 34.6084C103.346 34.6141 103.049 34.5659 102.768 34.4661C102.515 34.3703 102.285 34.2213 102.095 34.0292C101.904 33.8355 101.756 33.604 101.661 33.3497C101.559 33.0843 101.508 32.8023 101.509 32.5181C101.506 32.2323 101.559 31.9487 101.664 31.6832C101.767 31.4292 101.923 31.1998 102.121 31.0101C102.316 30.8192 102.548 30.6705 102.803 30.5733C103.072 30.4724 103.357 30.4219 103.645 30.4245C103.935 30.4202 104.223 30.4787 104.489 30.596C104.741 30.72 104.963 30.8992 105.136 31.1202L104.661 31.4794C104.544 31.3337 104.397 31.2155 104.23 31.1331C104.052 31.0543 103.859 31.0157 103.664 31.0199C103.469 31.0124 103.274 31.0453 103.092 31.1165C102.91 31.1878 102.744 31.2959 102.606 31.434C102.468 31.577 102.36 31.7465 102.29 31.9323C102.219 32.1181 102.187 32.3163 102.195 32.5148C102.186 32.7159 102.218 32.9166 102.289 33.105C102.36 33.2935 102.467 33.4658 102.606 33.6118C102.744 33.7521 102.911 33.8619 103.094 33.9344C103.277 34.0068 103.474 34.0402 103.67 34.0325C103.983 34.0498 104.292 33.9583 104.544 33.7736C104.65 33.6897 104.734 33.5822 104.79 33.4596C104.847 33.337 104.873 33.2029 104.868 33.0682V33.0099H103.897L103.903 32.4728Z" fill="#1F294E"/>
<path id="Vector_12" d="M106.227 34.5178V30.528H106.874V34.5178H106.227Z" fill="#1F294E"/>
<path id="Vector_13" d="M111.058 31.4955C110.887 31.3464 110.691 31.2282 110.479 31.1461C110.272 31.0682 110.053 31.0287 109.832 31.0296C109.633 31.0219 109.435 31.056 109.251 31.1296C109.066 31.2031 108.899 31.3146 108.761 31.4567C108.623 31.6011 108.515 31.7718 108.445 31.9586C108.374 32.1453 108.342 32.3444 108.35 32.5439C108.336 32.9385 108.479 33.3223 108.748 33.6118C108.877 33.7483 109.033 33.8561 109.206 33.928C109.38 33.9999 109.566 34.0344 109.754 34.0292C109.985 34.0297 110.214 33.988 110.43 33.9063C110.655 33.8151 110.863 33.6871 111.045 33.5277V34.259C110.872 34.3839 110.68 34.4791 110.476 34.5405C110.258 34.6029 110.032 34.6334 109.806 34.6311C109.518 34.6345 109.231 34.584 108.961 34.4822C108.705 34.3853 108.473 34.2354 108.279 34.0422C108.084 33.8496 107.931 33.6195 107.829 33.3659C107.724 33.1033 107.672 32.8232 107.673 32.5407C107.671 32.2582 107.724 31.9779 107.829 31.7156C107.932 31.4607 108.087 31.2304 108.285 31.0393C108.478 30.8448 108.709 30.6927 108.965 30.5927C109.23 30.4903 109.512 30.4387 109.796 30.4406C110.023 30.4403 110.249 30.4752 110.466 30.5442C110.687 30.6206 110.895 30.7297 111.084 30.8678L111.058 31.4955Z" fill="#1F294E"/>
<path id="Vector_14" d="M114.527 34.5178L114.074 33.4888H112.495L112.032 34.5178H111.35L113.291 30.3695L115.233 34.5178H114.527ZM112.735 32.9484H113.848L113.437 32.0392C113.414 31.9809 113.388 31.913 113.366 31.8385C113.343 31.7641 113.314 31.68 113.288 31.5862C113.265 31.6735 113.243 31.7544 113.22 31.8321C113.197 31.9097 113.168 31.9744 113.142 32.0392L112.735 32.9484Z" fill="#1F294E"/>
<path id="Vector_15" d="M70.7166 41.2128V37.223H71.5805C71.9816 37.209 72.383 37.2383 72.7778 37.3104C72.9997 37.3622 73.2081 37.4604 73.3894 37.5984C73.6207 37.775 73.8015 38.0094 73.9136 38.2779C74.0376 38.5772 74.0982 38.8989 74.0916 39.2228C74.0979 39.5456 74.0373 39.8662 73.9136 40.1644C73.7987 40.4304 73.6184 40.6631 73.3894 40.8407C73.2125 40.976 73.0099 41.074 72.794 41.1287C72.4511 41.1969 72.1014 41.2251 71.7521 41.2128H70.7036H70.7166ZM71.3637 40.6271H71.9041C72.1311 40.6342 72.358 40.6146 72.5804 40.5689C72.723 40.5312 72.8555 40.4627 72.9687 40.3683C73.1206 40.2386 73.2375 40.0728 73.3085 39.8861C73.3875 39.6718 73.4259 39.4447 73.4217 39.2163C73.4253 38.988 73.387 38.7609 73.3085 38.5465C73.2374 38.3608 73.1205 38.1961 72.9687 38.0676C72.8519 37.9687 72.7133 37.8988 72.5642 37.8637C72.3212 37.8171 72.0738 37.7975 71.8265 37.8055H71.3605L71.3637 40.6271Z" fill="#1F294E"/>
<path id="Vector_16" d="M74.8877 41.2129V37.223H77.114V37.7764H75.5349V38.7762H77.114V39.3458H75.5349V40.6401H77.114V41.2193L74.8877 41.2129Z" fill="#1F294E"/>
<path id="Vector_17" d="M79.3921 40.4168L79.9098 40.1774C79.9481 40.34 80.0434 40.4835 80.1784 40.5819C80.3264 40.681 80.5019 40.7309 80.68 40.7242C80.8483 40.7322 81.0132 40.6742 81.1394 40.5625C81.1969 40.507 81.2419 40.4399 81.2715 40.3657C81.3011 40.2915 81.3145 40.2119 81.311 40.1321C81.311 39.8991 81.1168 39.6888 80.7285 39.5043L80.6023 39.4461C80.2744 39.31 79.9756 39.1123 79.7221 38.8636C79.5728 38.6817 79.4946 38.4517 79.5021 38.2165C79.496 38.0693 79.5218 37.9226 79.5776 37.7863C79.6335 37.65 79.7181 37.5274 79.8257 37.4269C80.0654 37.219 80.3759 37.1112 80.6929 37.126C80.9493 37.1164 81.2038 37.1744 81.4307 37.2942C81.623 37.4011 81.7693 37.575 81.8416 37.7828L81.3368 38.0449C81.2701 37.9356 81.1808 37.8418 81.0747 37.7699C80.9768 37.712 80.8649 37.6818 80.7512 37.6825C80.6009 37.6742 80.453 37.7227 80.337 37.8184C80.2857 37.8642 80.2452 37.9207 80.2184 37.9839C80.1915 38.0471 80.179 38.1155 80.1816 38.1841C80.1816 38.4235 80.4081 38.6468 80.8579 38.8539L80.9388 38.8927C81.2437 39.0124 81.5203 39.1942 81.751 39.4267C81.9004 39.6086 81.9786 39.8386 81.9711 40.0738C81.9796 40.2405 81.9523 40.4071 81.8909 40.5623C81.8295 40.7175 81.7354 40.8577 81.6151 40.9734C81.3462 41.2039 80.9978 41.3201 80.6444 41.297C80.3484 41.3097 80.0561 41.2282 79.8095 41.064C79.5967 40.9058 79.4484 40.6759 79.3921 40.4168Z" fill="#1F294E"/>
<path id="Vector_18" d="M82.7217 41.2129V37.223H84.948V37.7764H83.3721V38.7762H84.948V39.3458H83.3721V40.6401H84.948V41.2193L82.7217 41.2129Z" fill="#1F294E"/>
<path id="Vector_19" d="M86.3393 39.4299V41.2128H85.731V37.223H86.637C86.8443 37.2188 87.0514 37.2361 87.2551 37.2748C87.3913 37.3054 87.5193 37.365 87.6304 37.4495C87.7553 37.5475 87.8532 37.6755 87.9152 37.8216C87.9837 37.9799 88.0179 38.1508 88.0155 38.3232C88.0309 38.5928 87.9494 38.8591 87.7857 39.0739C87.606 39.2644 87.361 39.38 87.0997 39.3975L88.475 41.2096H87.7404L86.4137 39.4266L86.3393 39.4299ZM86.3814 38.9251H86.4979C86.7321 38.948 86.9682 38.9066 87.1806 38.8054C87.2416 38.754 87.2891 38.6886 87.319 38.6147C87.3489 38.5408 87.3603 38.4607 87.3521 38.3815C87.3609 38.295 87.349 38.2077 87.3175 38.1267C87.286 38.0457 87.2358 37.9733 87.1709 37.9155C86.9647 37.8053 86.7307 37.758 86.4979 37.7796H86.3814V38.9251Z" fill="#1F294E"/>
<path id="Vector_20" d="M90.164 41.3682L88.3843 37.223H89.0541L89.9472 39.349C90.0022 39.4752 90.0443 39.5885 90.0799 39.692C90.1131 39.7894 90.1401 39.8888 90.1608 39.9897C90.1867 39.8894 90.2158 39.7858 90.2514 39.6661C90.2888 39.556 90.332 39.448 90.3808 39.3425L91.2707 37.2166H91.9405L90.164 41.3682Z" fill="#1F294E"/>
<path id="Vector_21" d="M92.397 41.2129V37.223H93.0441V41.2129H92.397Z" fill="#1F294E"/>
<path id="Vector_22" d="M97.2183 38.1938C97.0469 38.0447 96.8509 37.9264 96.6391 37.8443C96.4329 37.7639 96.2133 37.7233 95.9919 37.7246C95.7951 37.718 95.5991 37.752 95.4159 37.8243C95.2328 37.8967 95.0665 38.0059 94.9273 38.1452C94.7906 38.2903 94.6841 38.4612 94.6141 38.6479C94.5441 38.8345 94.512 39.0333 94.5196 39.2325C94.5126 39.4274 94.5442 39.6218 94.6125 39.8045C94.6808 39.9872 94.7845 40.1546 94.9176 40.2971C95.0458 40.4347 95.2019 40.5434 95.3755 40.6159C95.549 40.6885 95.736 40.7232 95.924 40.7178C96.1554 40.7188 96.3848 40.676 96.6003 40.5916C96.8261 40.5029 97.0343 40.3747 97.2151 40.213V40.9475C97.0423 41.0725 96.8498 41.1677 96.6456 41.229C96.4279 41.2915 96.2022 41.322 95.9758 41.3196C95.6874 41.323 95.401 41.2725 95.1312 41.1708C94.8751 41.0739 94.6424 40.9239 94.4484 40.7307C94.2541 40.5382 94.1011 40.3081 93.9987 40.0544C93.8941 39.7908 93.8414 39.5096 93.8433 39.226C93.8413 38.9446 93.8941 38.6654 93.9987 38.4041C94.1026 38.1487 94.2579 37.9175 94.4549 37.7246C94.6489 37.5321 94.8801 37.3813 95.1344 37.2813C95.3996 37.1788 95.6817 37.1273 95.966 37.1292C96.1934 37.1273 96.4197 37.1622 96.6359 37.2327C96.8564 37.303 97.0648 37.4067 97.2539 37.5401L97.2183 38.1938Z" fill="#1F294E"/>
<path id="Vector_23" d="M98.0728 41.2129V37.223H98.7199V41.2129H98.0728Z" fill="#1F294E"/>
<path id="Vector_24" d="M103.784 39.2228C103.786 39.4993 103.732 39.7734 103.625 40.0285C103.517 40.2831 103.359 40.5132 103.159 40.7048C102.959 40.8999 102.723 41.0538 102.464 41.1578C102.206 41.2644 101.93 41.3183 101.652 41.3164C101.37 41.3176 101.091 41.2637 100.83 41.1578C100.573 41.0521 100.339 40.8984 100.14 40.7048C99.9416 40.5146 99.7841 40.2855 99.6777 40.0318C99.5706 39.7756 99.5166 39.5004 99.5191 39.2228C99.517 38.9463 99.5709 38.6722 99.6777 38.4171C99.784 38.1614 99.9415 37.9301 100.14 37.7375C100.339 37.5412 100.574 37.3861 100.833 37.2813C101.093 37.1774 101.371 37.1246 101.652 37.126C101.932 37.1246 102.21 37.1774 102.47 37.2813C102.727 37.385 102.961 37.5378 103.159 37.7311C103.358 37.9262 103.516 38.1581 103.625 38.4138C103.732 38.67 103.786 38.9452 103.784 39.2228ZM103.108 39.2228C103.109 39.0265 103.072 38.8319 102.998 38.65C102.923 38.4686 102.813 38.3037 102.674 38.1647C102.541 38.0261 102.382 37.916 102.205 37.8411C102.028 37.7657 101.837 37.7272 101.645 37.7278C101.453 37.7279 101.262 37.7664 101.085 37.8411C100.908 37.9164 100.747 38.0265 100.613 38.1647C100.473 38.3018 100.363 38.4658 100.289 38.6468C100.215 38.8297 100.178 39.0254 100.179 39.2228C100.177 39.4191 100.215 39.6139 100.289 39.7955C100.363 39.9765 100.473 40.1406 100.613 40.2777C100.747 40.4164 100.908 40.5265 101.085 40.6013C101.262 40.6755 101.453 40.7129 101.645 40.7113C101.836 40.7127 102.025 40.6753 102.202 40.6013C102.379 40.5257 102.54 40.4157 102.674 40.2777C102.813 40.1404 102.923 39.9764 102.998 39.7955C103.072 39.6137 103.109 39.4191 103.108 39.2228Z" fill="#1F294E"/>
<path id="Vector_25" d="M104.337 40.4168L104.855 40.1774C104.893 40.3408 104.99 40.4846 105.127 40.5818C105.275 40.6814 105.45 40.7313 105.629 40.7242C105.797 40.7322 105.962 40.6741 106.088 40.5624C106.145 40.5068 106.19 40.4396 106.219 40.3654C106.248 40.2912 106.26 40.2116 106.256 40.1321C106.256 39.8991 106.062 39.6887 105.674 39.5043L105.548 39.4461C105.221 39.3101 104.923 39.1123 104.671 38.8636C104.519 38.6829 104.441 38.4521 104.451 38.2164C104.445 38.0693 104.47 37.9226 104.526 37.7863C104.582 37.65 104.667 37.5274 104.774 37.4269C105.014 37.2193 105.325 37.1116 105.641 37.1259C105.899 37.1168 106.154 37.1748 106.382 37.2942C106.574 37.402 106.72 37.5756 106.793 37.7828L106.285 38.0449C106.219 37.9356 106.129 37.8418 106.023 37.7699C105.925 37.712 105.813 37.6818 105.7 37.6825C105.55 37.6745 105.402 37.7229 105.286 37.8184C105.234 37.8641 105.194 37.9206 105.167 37.9838C105.14 38.0471 105.128 38.1154 105.13 38.1841C105.13 38.4235 105.357 38.6468 105.806 38.8539L105.887 38.8927C106.192 39.0124 106.469 39.1942 106.7 39.4266C106.85 39.6081 106.929 39.8381 106.923 40.0738C106.931 40.2407 106.903 40.4074 106.841 40.5626C106.779 40.7178 106.684 40.8578 106.564 40.9734C106.295 41.2045 105.946 41.3207 105.593 41.297C105.297 41.3097 105.005 41.2281 104.758 41.064C104.544 40.9063 104.395 40.6764 104.337 40.4168Z" fill="#1F294E"/>
<path id="Vector_26" d="M0.0161556 12.3651V12.3489L5.08353 7.17152L0.0161556 12.3651Z" fill="white"/>
<path id="Vector_27" d="M0.0161133 12.3651V12.3489L5.08349 7.17152L0.0161133 12.3651Z" fill="#2B3A4D"/>
<path id="Vector_28" d="M0.0161133 12.3651V12.3489L5.08349 7.17153L0.0161133 12.3651ZM55.3495 12.391L50.871 7.18771L55.3689 12.3651L55.3495 12.391ZM5.82776 6.40463L11.4582 0.631836H11.4873L5.82776 6.40463ZM50.4536 6.72822L50.4892 6.69261L50.5215 6.72822H50.4536ZM28.0581 40.598L12.4289 24.8491L14.2313 22.9884L28.0355 36.9027L41.487 23.0046L43.312 24.8426L28.0581 40.598Z" fill="#1F294E"/>
<path id="Vector_29" d="M5.80518 6.40463L11.4356 0.631836H11.4647L5.80518 6.40463Z" fill="#1D1D1B"/>
<path id="Vector_30" d="M23.5506 12.4104L18.9428 7.05179H10.413L13.0697 9.64048H17.7552L20.0494 12.3068L17.9882 14.4328L17.7649 14.6658L17.5384 14.8988L15.7587 16.7335L15.5354 16.9665L15.3089 17.1995L12.3837 20.2185L12.1604 20.4515L11.9339 20.6845L3.65329 12.336L6.29376 9.64048H7.59458L7.37778 9.42691L7.14479 9.2004L6.91505 8.97389L5.08031 7.17799L0.0161793 12.3489L0 12.3651L11.9403 24.3993L11.9565 24.3831L13.7589 22.5225L13.9822 22.2895L14.2087 22.0565L17.1598 19.0116L17.3831 18.7786L17.6096 18.5456L19.3925 16.7044L19.6191 16.4714L19.8423 16.2384L23.5506 12.4104Z" fill="#CE551E"/>
<path id="Vector_31" d="M55.3558 12.391L50.8709 7.1877L55.3687 12.3651L55.3558 12.391Z" fill="#CE551E"/>
<path id="Vector_32" d="M55.369 12.4039L55.3561 12.391L50.8841 7.19093L49.0429 8.99331L48.8099 9.21982L48.5802 9.44633L48.386 9.63401H49.5703L51.8516 12.2874L51.8646 12.3004L43.7361 20.6942L43.7231 20.6813L43.4966 20.4515L43.2669 20.2218L40.4614 17.3936L40.2316 17.1639L40.0051 16.9341L38.2674 15.1835L38.0409 14.9538L37.8112 14.724L35.4522 12.3457L38.1121 9.63401H43.1083L45.8038 7.04532H37.0249L31.8184 12.3554L35.9473 16.5167L36.1738 16.7464L36.4036 16.9762L38.1542 18.743L38.3839 18.9727L38.6104 19.2025L41.4677 22.0792L41.6942 22.3089L41.924 22.5386L43.7458 24.3766L43.7587 24.3896L55.369 12.4039Z" fill="#CE551E"/>
<path id="Vector_33" d="M50.4534 6.72175L50.489 6.68616L50.5214 6.72175H50.4534ZM55.3719 12.391L50.8709 7.18771L55.3687 12.3651L55.3719 12.391ZM55.3719 12.391L50.8709 7.18771L55.3687 12.3651L55.3719 12.391ZM55.3719 12.391L50.8709 7.18771L55.3687 12.3651L55.3719 12.391ZM55.3719 12.391L50.8709 7.18771L55.3687 12.3651L55.3719 12.391ZM55.3719 12.391L50.8709 7.18771L55.3687 12.3651L55.3719 12.391ZM55.3719 12.391L50.8709 7.18771L55.3687 12.3651L55.3719 12.391ZM55.3719 12.391L50.8709 7.18771L55.3687 12.3651L55.3719 12.391Z" fill="#CE551E"/>
<path id="Vector_34" d="M50.4374 6.72173L50.473 6.68614L50.5053 6.72173H50.4374ZM5.81152 6.39815L11.4419 0.625351H11.4711L5.81152 6.39815Z" fill="#1F294E"/>
<path id="Vector_35" d="M37.6913 19.196L35.9343 17.426L27.9805 25.0691L19.8585 17.1574L18.0723 18.9986L27.9773 28.703L37.6913 19.196Z" fill="#1F294E"/>
<path id="Vector_36" d="M50.473 6.68614L50.2271 6.39815H50.2238L45.2665 0.631836H11.4678L5.81155 6.40462H5.80832L5.51709 6.70232L5.54298 6.72821L5.87304 7.0518L7.36801 8.51441L7.59775 8.74092L7.83073 8.96743L8.51674 9.64049L8.8468 9.96408L9.17686 10.2877L15.2959 16.2837L17.0756 14.4458L12.8043 10.2877L12.4742 9.96408L12.1409 9.64049L9.59752 7.16182L9.48426 7.0518L9.36454 6.93854L9.15097 6.72821L9.13479 6.71203L9.43572 6.40462L12.5551 3.22053H44.053L46.7809 6.39815L47.0591 6.72174L47.0656 6.72821L46.8488 6.93854L46.7356 7.04532L46.6126 7.16182L44.0433 9.63402L43.7068 9.9576L43.367 10.2812L38.7333 14.7337L40.4677 16.4811L46.8003 10.2812L47.1303 9.9576L47.4604 9.63402L48.1561 8.95448L48.3891 8.72797L48.6188 8.50146L50.1073 7.04532L50.4374 6.72174L50.473 6.68614Z" fill="#1F294E"/>
<path id="Vector_37" d="M50.4375 6.72175L50.4731 6.68616L50.5055 6.72175H50.4375Z" fill="#1F294E"/>
<path id="Vector_38" d="M62.0381 27.8358V1.26607H69.6068C72.5708 1.26607 74.6364 1.40304 75.8035 1.67701C76.8962 1.91472 77.9263 2.38123 78.8258 3.04579C79.7814 3.77196 80.5391 4.72667 81.0294 5.82217C81.5537 6.99191 81.8176 8.26162 81.8028 9.54342C81.8028 11.5993 81.2969 13.2711 80.2851 14.559C79.2734 15.8469 77.8011 16.7033 75.8682 17.1283L83.1068 27.8358H74.9233L68.8269 17.4357V27.8358H62.0381ZM68.8334 13.8245H70.1763C71.736 13.8245 72.8761 13.5591 73.5966 13.0284C74.3171 12.4978 74.6763 11.6629 74.6741 10.5239C74.6741 9.1907 74.3506 8.25878 73.6678 7.6828C72.985 7.10681 71.8686 6.83822 70.2831 6.83822H68.8334V13.8245Z" fill="#1F294E"/>
<path id="Vector_39" d="M98.8622 19.251C99.7699 20.3292 100.845 21.2546 102.046 21.9918C102.991 22.5681 104.072 22.882 105.179 22.9011C106.042 22.9356 106.889 22.6576 107.563 22.118C107.861 21.8831 108.101 21.5823 108.263 21.2393C108.425 20.8962 108.506 20.5203 108.499 20.1409C108.522 19.7621 108.461 19.3828 108.321 19.0299C108.182 18.6771 107.966 18.3593 107.69 18.099C107.152 17.6201 105.934 17.1272 104.033 16.6203C101.431 15.9192 99.5978 15.0056 98.5321 13.8795C97.4664 12.7534 96.9271 11.211 96.9142 9.25218C96.9142 6.71311 97.7641 4.64107 99.464 3.03608C101.164 1.43109 103.369 0.629673 106.078 0.63183C107.489 0.62456 108.893 0.822958 110.246 1.22076C111.572 1.62311 112.828 2.22663 113.97 3.0102L111.705 8.2167C110.95 7.55866 110.096 7.0236 109.175 6.63114C108.363 6.28357 107.489 6.10097 106.606 6.09397C105.848 6.0599 105.1 6.28093 104.483 6.72173C104.226 6.90479 104.017 7.14783 103.875 7.42976C103.733 7.71169 103.662 8.02401 103.667 8.33967C103.656 8.64317 103.714 8.94532 103.838 9.22258C103.962 9.49984 104.148 9.74472 104.383 9.93819C104.861 10.3373 105.784 10.718 107.149 11.0805L107.473 11.1711C110.428 11.9714 112.37 12.8483 113.297 13.8018C113.937 14.4739 114.426 15.2749 114.731 16.1511C115.067 17.1293 115.233 18.1583 115.219 19.1928C115.219 22.0123 114.294 24.2774 112.443 25.9881C110.592 27.6988 108.122 28.5509 105.033 28.5444C103.302 28.5662 101.584 28.2451 99.9785 27.5996C98.3465 26.8955 96.8604 25.8924 95.5972 24.642L98.8622 19.251Z" fill="#1F294E"/>
<path id="Vector_40" d="M85.5401 27.8358V7.54688H79.5894V1.26607H98.736V7.54688H92.782V27.8358H85.5401Z" fill="#CE551E"/>
</g>
<defs>
<clipPath id="clip0_1296_4055">
<rect width="115.213" height="40.7363" fill="white" transform="translate(0 0.631836)"/>
</clipPath>
</defs>
</svg>