<svg xmlns="http://www.w3.org/2000/svg" width="20" height="20" viewBox="0 0 20 20" fill="none">
<g id="atom/icon/products">
<path id="Icon (Stroke)" fill-rule="evenodd" clip-rule="evenodd" d="M0 4C0 2.34315 1.34315 1 3 1H17C18.6569 1 20 2.34315 20 4C20 5.30622 19.1652 6.41746 18 6.82929V16C18 17.6569 16.6569 19 15 19H5C3.34315 19 2 17.6569 2 16L2 6.82929C0.834807 6.41746 0 5.30622 0 4ZM4 7V16C4 16.5523 4.44772 17 5 17H15C15.5523 17 16 16.5523 16 16V7H4ZM3 3C2.44772 3 2 3.44772 2 4C2 4.55228 2.44772 5 3 5H17C17.5523 5 18 4.55228 18 4C18 3.44772 17.5523 3 17 3H3ZM7 10C7 9.44772 7.44771 9 8 9H12C12.5523 9 13 9.44772 13 10C13 10.5523 12.5523 11 12 11H8C7.44771 11 7 10.5523 7 10Z" fill="#000617"/>
</g>
</svg>