<svg xmlns="http://www.w3.org/2000/svg" width="32" height="33" viewBox="0 0 32 33" fill="none">
<g id="atom/icon/list">
<path id="Icon (Stroke)" fill-rule="evenodd" clip-rule="evenodd" d="M11.0048 7.09739C11.4991 5.69916 12.8325 4.69739 14.4 4.69739H16.8C18.3675 4.69739 19.7009 5.69916 20.1952 7.09739H21.6C23.5882 7.09739 25.2 8.70916 25.2 10.6974V25.0974C25.2 27.0856 23.5882 28.6974 21.6 28.6974H9.6C7.61177 28.6974 6 27.0856 6 25.0974V10.6974C6 8.70916 7.61178 7.09739 9.6 7.09739H11.0048ZM11.0048 9.49739H9.6C8.93726 9.49739 8.4 10.0346 8.4 10.6974V25.0974C8.4 25.7601 8.93726 26.2974 9.6 26.2974H21.6C22.2627 26.2974 22.8 25.7601 22.8 25.0974V10.6974C22.8 10.0346 22.2627 9.49739 21.6 9.49739H20.1952C19.7009 10.8956 18.3675 11.8974 16.8 11.8974H14.4C12.8325 11.8974 11.4991 10.8956 11.0048 9.49739ZM14.4 7.09739C13.7373 7.09739 13.2 7.63465 13.2 8.29739C13.2 8.96013 13.7373 9.49739 14.4 9.49739H16.8C17.4627 9.49739 18 8.96013 18 8.29739C18 7.63465 17.4627 7.09739 16.8 7.09739H14.4ZM10.8 16.6974C10.8 16.0346 11.3373 15.4974 12 15.4974H12.012C12.6747 15.4974 13.212 16.0346 13.212 16.6974C13.212 17.3601 12.6747 17.8974 12.012 17.8974H12C11.3373 17.8974 10.8 17.3601 10.8 16.6974ZM14.4 16.6974C14.4 16.0346 14.9373 15.4974 15.6 15.4974H19.2C19.8627 15.4974 20.4 16.0346 20.4 16.6974C20.4 17.3601 19.8627 17.8974 19.2 17.8974H15.6C14.9373 17.8974 14.4 17.3601 14.4 16.6974ZM10.8 21.4974C10.8 20.8346 11.3373 20.2974 12 20.2974H12.012C12.6747 20.2974 13.212 20.8346 13.212 21.4974C13.212 22.1601 12.6747 22.6974 12.012 22.6974H12C11.3373 22.6974 10.8 22.1601 10.8 21.4974ZM14.4 21.4974C14.4 20.8346 14.9373 20.2974 15.6 20.2974H19.2C19.8627 20.2974 20.4 20.8346 20.4 21.4974C20.4 22.1601 19.8627 22.6974 19.2 22.6974H15.6C14.9373 22.6974 14.4 22.1601 14.4 21.4974Z" fill="#FAFAFA"/>
</g>
</svg>