<svg xmlns="http://www.w3.org/2000/svg" width="20" height="20" viewBox="0 0 20 20" fill="none">
<g id="atom/icon/services" clip-path="url(#clip0_850_858)">
<path id="Vector" d="M6.5911 8.87251L8.88598 6.55095L7.39164 5.02993L6.96468 5.45688C6.769 5.65257 6.52457 5.75504 6.23139 5.76429C5.93822 5.77354 5.68454 5.67107 5.47035 5.45688C5.25616 5.24269 5.14942 4.98937 5.15013 4.6969C5.15084 4.40444 5.25758 4.15076 5.47035 3.93586L5.87062 3.53559L4.66981 2.33478L2.34825 4.65634L6.5911 8.87251ZM15.3437 17.6518L17.6652 15.3302L16.4644 14.1294L16.0375 14.5297C15.824 14.7431 15.5749 14.8499 15.2903 14.8499C15.0057 14.8499 14.7566 14.7431 14.5431 14.5297C14.3296 14.3162 14.2229 14.0671 14.2229 13.7825C14.2229 13.4978 14.3296 13.2488 14.5431 13.0353L14.9434 12.6084L13.4224 11.114L11.1275 13.4089L15.3437 17.6518ZM1.46765 19.5997C1.16523 19.5997 0.911902 19.4973 0.707676 19.2923C0.50345 19.0874 0.400981 18.8341 0.400269 18.5323V15.517C0.400269 15.3747 0.426954 15.237 0.480323 15.1039C0.533692 14.9708 0.613746 14.8506 0.720485 14.7431L5.07008 10.3935L0.453638 5.7771C0.151213 5.47467 0 5.10109 0 4.65634C0 4.2116 0.151213 3.83802 0.453638 3.53559L3.54905 0.440174C3.85148 0.137749 4.22506 -0.00883882 4.66981 0.000411845C5.11455 0.00966251 5.48814 0.165145 5.79056 0.466859L10.4337 5.0833L14.4631 1.02724C14.6765 0.813759 14.9167 0.653651 15.1835 0.546913C15.4504 0.440174 15.7261 0.386805 16.0108 0.386805C16.2954 0.386805 16.5711 0.440174 16.838 0.546913C17.1048 0.653651 17.345 0.813759 17.5585 1.02724L18.9728 2.4682C19.1862 2.68168 19.3463 2.92184 19.4531 3.18869C19.5598 3.45554 19.6132 3.73128 19.6132 4.01591C19.6132 4.30055 19.5598 4.57202 19.4531 4.83033C19.3463 5.08863 19.1862 5.32417 18.9728 5.53694L14.9434 9.593L19.5598 14.2094C19.8623 14.5119 20.0135 14.8854 20.0135 15.3302C20.0135 15.7749 19.8623 16.1485 19.5598 16.4509L16.4644 19.5464C16.162 19.8488 15.7884 20 15.3437 20C14.8989 20 14.5253 19.8488 14.2229 19.5464L9.60646 14.9299L5.25687 19.2795C5.15013 19.3863 5.03023 19.4663 4.89716 19.5197C4.76409 19.573 4.62605 19.5997 4.48302 19.5997H1.46765ZM2.53504 17.465H4.02938L14.4897 7.03128L12.9687 5.51025L2.53504 15.9706V17.465ZM13.7426 6.28411L12.9687 5.51025L14.4897 7.03128L13.7426 6.28411Z" fill="#000617"/>
</g>
<defs>
<clipPath id="clip0_850_858">
<rect width="20" height="20" fill="white"/>
</clipPath>
</defs>
</svg>