<svg xmlns="http://www.w3.org/2000/svg" width="32" height="33" viewBox="0 0 32 33" fill="none">
<g id="Component 22">
<path id="Icon (Stroke)" fill-rule="evenodd" clip-rule="evenodd" d="M16 8.87921C14.795 8.87921 13.8182 9.85604 13.8182 11.061C13.8182 12.266 14.795 13.2428 16 13.2428C17.205 13.2428 18.1818 12.266 18.1818 11.061C18.1818 9.85604 17.205 8.87921 16 8.87921ZM11.6364 11.061C11.6364 8.65105 13.59 6.69739 16 6.69739C18.41 6.69739 20.3636 8.65105 20.3636 11.061C20.3636 13.471 18.41 15.4247 16 15.4247C13.59 15.4247 11.6364 13.471 11.6364 11.061ZM8.36364 13.2428C7.76114 13.2428 7.27273 13.7313 7.27273 14.3338C7.27273 14.9362 7.76114 15.4247 8.36364 15.4247C8.96613 15.4247 9.45455 14.9362 9.45455 14.3338C9.45455 13.7313 8.96613 13.2428 8.36364 13.2428ZM5.09091 14.3338C5.09091 12.5263 6.55616 11.061 8.36364 11.061C10.1711 11.061 11.6364 12.5263 11.6364 14.3338C11.6364 16.1412 10.1711 17.6065 8.36364 17.6065C6.55616 17.6065 5.09091 16.1412 5.09091 14.3338ZM23.6364 13.2428C23.0339 13.2428 22.5455 13.7313 22.5455 14.3338C22.5455 14.9362 23.0339 15.4247 23.6364 15.4247C24.2389 15.4247 24.7273 14.9362 24.7273 14.3338C24.7273 13.7313 24.2389 13.2428 23.6364 13.2428ZM20.3636 14.3338C20.3636 12.5263 21.8289 11.061 23.6364 11.061C25.4438 11.061 26.9091 12.5263 26.9091 14.3338C26.9091 16.1412 25.4438 17.6065 23.6364 17.6065C21.8289 17.6065 20.3636 16.1412 20.3636 14.3338ZM16 18.6974C14.1645 18.6974 12.5911 19.8311 11.9469 21.4405C11.7469 21.9401 11.6364 22.4863 11.6364 23.061V24.1519H20.3636V23.061C20.3636 22.4863 20.2531 21.9401 20.0531 21.4405C19.4089 19.8311 17.8355 18.6974 16 18.6974ZM22.5455 24.1519H25.8182V23.061C25.8182 21.856 24.8413 20.8792 23.6364 20.8792C23.1388 20.8792 22.6804 21.0451 22.3128 21.3262C22.4646 21.8796 22.5455 22.4615 22.5455 23.061V24.1519ZM21.3767 19.3276C20.195 17.6289 18.2284 16.5156 16 16.5156C13.7716 16.5156 11.805 17.6289 10.6233 19.3276C9.96445 18.928 9.19087 18.6974 8.36364 18.6974C5.95367 18.6974 4 20.6511 4 23.061V25.2428C4 25.8453 4.48842 26.3338 5.09091 26.3338H26.9091C27.5116 26.3338 28 25.8453 28 25.2428V23.061C28 20.6511 26.0463 18.6974 23.6364 18.6974C22.8091 18.6974 22.0356 18.928 21.3767 19.3276ZM9.68721 21.3262C9.31962 21.0451 8.86117 20.8792 8.36364 20.8792C7.15865 20.8792 6.18182 21.856 6.18182 23.061V24.1519H9.45455V23.061C9.45455 22.4615 9.53543 21.8796 9.68721 21.3262Z" fill="#F0F0F0"/>
</g>
</svg>