<svg width="66" height="65" viewBox="0 0 66 65" fill="none" xmlns="http://www.w3.org/2000/svg">
<g id="Frame 57">
<path id="Icon (Stroke)" fill-rule="evenodd" clip-rule="evenodd" d="M12.0947 32.6852C15.1381 41.2968 23.352 47.4625 33 47.4625C42.6479 47.4625 50.8618 41.2969 53.9052 32.6853C50.8618 24.0737 42.6479 17.908 32.9999 17.908C23.352 17.908 15.1381 24.0736 12.0947 32.6852ZM7.14906 31.9472C10.6006 20.9581 20.8656 12.9823 32.9999 12.9823C45.1343 12.9823 55.3994 20.9582 58.8508 31.9474C59.0017 32.4278 59.0017 32.9429 58.8508 33.4234C55.3993 44.4124 45.1343 52.3882 33 52.3882C20.8656 52.3882 10.6005 44.4123 7.14906 33.4232C6.99816 32.9427 6.99817 32.4276 7.14906 31.9472ZM32.9988 27.7595C30.2784 27.7595 28.0731 29.9648 28.0731 32.6853C28.0731 35.4057 30.2784 37.611 32.9988 37.611C35.7193 37.611 37.9246 35.4057 37.9246 32.6853C37.9246 29.9648 35.7193 27.7595 32.9988 27.7595ZM23.1474 32.6853C23.1474 27.2444 27.558 22.8338 32.9988 22.8338C38.4397 22.8338 42.8503 27.2444 42.8503 32.6853C42.8503 38.1261 38.4397 42.5367 32.9988 42.5367C27.558 42.5367 23.1474 38.1261 23.1474 32.6853Z" fill="#071952"/>
</g>
</svg>
