<svg xmlns="http://www.w3.org/2000/svg" width="33" height="32" viewBox="0 0 33 32" fill="none">
<g id="atom/icon/computer">
<path id="Icon (Stroke)" fill-rule="evenodd" clip-rule="evenodd" d="M4.5 7.6C4.5 5.61177 6.11178 4 8.1 4H24.9C26.8882 4 28.5 5.61178 28.5 7.6V19.6C28.5 21.5882 26.8882 23.2 24.9 23.2H20.7369L21.1836 24.9865L22.1485 25.9515C22.4917 26.2947 22.5944 26.8108 22.4087 27.2592C22.2229 27.7076 21.7854 28 21.3 28H11.7C11.2146 28 10.7771 27.7076 10.5913 27.2592C10.4056 26.8108 10.5083 26.2947 10.8515 25.9515L11.8164 24.9865L12.2631 23.2H8.1C6.11177 23.2 4.5 21.5882 4.5 19.6V7.6ZM6.9 18.4V19.6C6.9 20.2627 7.43726 20.8 8.1 20.8H13.7731C13.7904 20.7996 13.8077 20.7996 13.8251 20.8H19.1749C19.1923 20.7996 19.2096 20.7996 19.2269 20.8H24.9C25.5627 20.8 26.1 20.2627 26.1 19.6V18.4H6.9ZM26.1 16H6.9V7.6C6.9 6.93726 7.43726 6.4 8.1 6.4H24.9C25.5627 6.4 26.1 6.93726 26.1 7.6V16ZM18.2631 23.2H14.7369L14.1369 25.6H18.8631L18.2631 23.2Z" fill="#FAFAFA"/>
</g>
</svg>