<svg xmlns="http://www.w3.org/2000/svg" width="23" height="22" viewBox="0 0 23 22" fill="none">
<g id="logos:whatsapp-icon" clip-path="url(#clip0_635_2192)">
<path id="Vector" d="M0.799255 10.8684C0.798744 12.7168 1.28172 14.5216 2.20009 16.1125L0.711426 21.5478L6.27384 20.0893C7.81233 20.9269 9.5361 21.3657 11.2878 21.3658H11.2924C17.0751 21.3658 21.7823 16.6603 21.7848 10.8766C21.7859 8.07401 20.6954 5.43862 18.7142 3.45589C16.7334 1.47333 14.0989 0.380918 11.292 0.379639C5.50862 0.379639 0.801728 5.08491 0.799341 10.8684" fill="url(#paint0_linear_635_2192)"/>
<path id="Vector_2" d="M0.424736 10.8649C0.42414 12.7799 0.924426 14.6493 1.87554 16.2971L0.333496 21.9273L6.09536 20.4165C7.68295 21.2821 9.4704 21.7385 11.2892 21.7392H11.2939C17.2841 21.7392 22.1604 16.8644 22.163 10.8736C22.164 7.97031 21.0343 5.24018 18.9823 3.18642C16.9301 1.13291 14.2014 0.0011938 11.2939 0C5.30277 0 0.427124 4.87411 0.424736 10.8649ZM3.85614 16.0133L3.641 15.6718C2.73661 14.2337 2.25926 12.572 2.25995 10.8656C2.26182 5.88619 6.31426 1.83504 11.2973 1.83504C13.7105 1.83606 15.9784 2.77678 17.6842 4.48357C19.3898 6.19053 20.3284 8.4596 20.3278 10.8729C20.3256 15.8524 16.2731 19.904 11.2939 19.904H11.2903C9.66909 19.9032 8.07903 19.4678 6.69235 18.645L6.36235 18.4493L2.94314 19.3458L3.85614 16.0133Z" fill="url(#paint1_linear_635_2192)"/>
<path id="Vector_3" d="M8.57728 6.32274C8.37382 5.87054 8.1597 5.86142 7.96622 5.85349C7.80779 5.84666 7.62667 5.84718 7.44572 5.84718C7.26461 5.84718 6.97034 5.91531 6.7216 6.1869C6.47261 6.45874 5.771 7.11567 5.771 8.45179C5.771 9.78799 6.7442 11.0793 6.87986 11.2606C7.0157 11.4417 8.75865 14.2713 11.519 15.3599C13.8132 16.2645 14.2801 16.0846 14.7779 16.0392C15.2759 15.994 16.3848 15.3825 16.611 14.7483C16.8374 14.1142 16.8374 13.5707 16.7695 13.4571C16.7017 13.344 16.5206 13.276 16.249 13.1403C15.9773 13.0044 14.6421 12.3474 14.3932 12.2568C14.1442 12.1662 13.9632 12.121 13.7821 12.3929C13.6009 12.6644 13.0809 13.276 12.9224 13.4571C12.764 13.6387 12.6055 13.6613 12.334 13.5254C12.0622 13.3892 11.1876 13.1027 10.1499 12.1776C9.34259 11.4578 8.79753 10.5688 8.6391 10.2969C8.48066 10.0254 8.62213 9.87821 8.75831 9.74288C8.88033 9.6212 9.02998 9.42576 9.1659 9.26724C9.30131 9.10863 9.34651 8.99548 9.43707 8.81436C9.52771 8.63308 9.48234 8.47447 9.41455 8.33863C9.34651 8.2028 8.81876 6.85969 8.57728 6.32274Z" fill="white"/>
</g>
<defs>
<linearGradient id="paint0_linear_635_2192" x1="1054.38" y1="2117.2" x2="1054.38" y2="0.379639" gradientUnits="userSpaceOnUse">
<stop stop-color="#1FAF38"/>
<stop offset="1" stop-color="#60D669"/>
</linearGradient>
<linearGradient id="paint1_linear_635_2192" x1="1091.81" y1="2192.73" x2="1091.81" y2="0" gradientUnits="userSpaceOnUse">
<stop stop-color="#F9F9F9"/>
<stop offset="1" stop-color="white"/>
</linearGradient>
<clipPath id="clip0_635_2192">
<rect width="21.8295" height="22" fill="white" transform="translate(0.333496)"/>
</clipPath>
</defs>
</svg>