<svg width="66" height="66" viewBox="0 0 66 66" fill="none" xmlns="http://www.w3.org/2000/svg">
<g id="Frame 59">
<g id="Group 31">
<path id="Icon (Stroke)" fill-rule="evenodd" clip-rule="evenodd" d="M32.9999 23.5393C27.264 23.5393 23.2633 27.54 23.2633 33.2759C23.2633 39.0117 27.264 43.0124 32.9999 43.0124C38.7357 43.0124 42.7364 39.0117 42.7364 33.2759C42.7364 27.54 38.7357 23.5393 32.9999 23.5393ZM20.0178 33.2759C20.0178 26.1061 25.8301 20.2938 32.9999 20.2938C40.1696 20.2938 45.9819 26.1061 45.9819 33.2759C45.9819 40.4456 40.1696 46.2579 32.9999 46.2579C25.8301 46.2579 20.0178 40.4456 20.0178 33.2759ZM32.9999 26.7848C33.7168 26.7848 34.2981 27.3661 34.2981 28.083V32.7381L37.8124 36.2525C38.3194 36.7595 38.3194 37.5815 37.8124 38.0884C37.3055 38.5954 36.4835 38.5954 35.9765 38.0884L32.0819 34.1938C31.8384 33.9504 31.7017 33.6202 31.7017 33.2759V28.083C31.7017 27.3661 32.2829 26.7848 32.9999 26.7848Z" fill="#071952"/>
<path id="Icon (Stroke)_2" fill-rule="evenodd" clip-rule="evenodd" d="M26.1269 12.7157C27.8762 5.51014 38.1238 5.51015 39.873 12.7157C40.1734 13.9529 41.5908 14.54 42.678 13.8775C49.01 10.0194 56.2562 17.2655 52.398 23.5975C51.7356 24.6847 52.3227 26.1022 53.5599 26.4025C60.7654 28.1518 60.7654 38.3994 53.5599 40.1487C52.3227 40.449 51.7356 41.8664 52.398 42.9537C56.2562 49.2856 49.01 56.5318 42.678 52.6736C41.5908 52.0112 40.1734 52.5983 39.873 53.8355C38.1238 61.041 27.8762 61.041 26.1269 53.8355C25.8265 52.5983 24.4091 52.0112 23.3219 52.6736C16.9899 56.5318 9.74375 49.2857 13.6019 42.9537C14.2643 41.8664 13.6772 40.449 12.44 40.1487C5.23451 38.3994 5.2345 28.1518 12.44 26.4025C13.6772 26.1022 14.2643 24.6847 13.6019 23.5975C9.74375 17.2655 16.9899 10.0194 23.3219 13.8775C24.4091 14.54 25.8265 13.9529 26.1269 12.7157ZM34.8268 13.9407C34.3618 12.0255 31.6381 12.0255 31.1731 13.9407C30.0431 18.5954 24.7103 20.8043 20.6199 18.312C18.9369 17.2865 17.0109 19.2125 18.0364 20.8955C20.5287 24.9859 18.3198 30.3187 13.6651 31.4488C11.7499 31.9137 11.7499 34.6375 13.6651 35.1024C18.3198 36.2324 20.5287 41.5652 18.0364 45.6556C17.0109 47.3386 18.9369 49.2646 20.6199 48.2392C24.7103 45.7468 30.0431 47.9558 31.1731 52.6104C31.6381 54.5256 34.3618 54.5256 34.8268 52.6104C35.9568 47.9558 41.2896 45.7468 45.38 48.2392C47.063 49.2646 48.989 47.3386 47.9635 45.6556C45.4712 41.5652 47.6801 36.2324 52.3348 35.1024C54.25 34.6375 54.25 31.9137 52.3348 31.4488C47.6801 30.3187 45.4712 24.9859 47.9635 20.8955C48.989 19.2125 47.063 17.2865 45.38 18.312C41.2896 20.8043 35.9568 18.5954 34.8268 13.9407Z" fill="#071952"/>
</g>
</g>
</svg>
