<svg width="66" height="66" viewBox="0 0 66 66" fill="none" xmlns="http://www.w3.org/2000/svg">
<g id="Frame 58">
<path id="Icon (Stroke)" fill-rule="evenodd" clip-rule="evenodd" d="M33 16.9899C30.3928 16.9899 28.2792 19.1035 28.2792 21.7106C28.2792 24.3178 30.3928 26.4314 33 26.4314C35.6071 26.4314 37.7207 24.3178 37.7207 21.7106C37.7207 19.1035 35.6071 16.9899 33 16.9899ZM23.5585 21.7106C23.5585 16.4963 27.7856 12.2692 33 12.2692C38.2143 12.2692 42.4414 16.4963 42.4414 21.7106C42.4414 26.925 38.2143 31.1521 33 31.1521C27.7856 31.1521 23.5585 26.925 23.5585 21.7106ZM16.4774 26.4314C15.1738 26.4314 14.117 27.4882 14.117 28.7918C14.117 30.0953 15.1738 31.1521 16.4774 31.1521C17.781 31.1521 18.8377 30.0953 18.8377 28.7918C18.8377 27.4882 17.781 26.4314 16.4774 26.4314ZM9.39626 28.7918C9.39626 24.881 12.5666 21.7106 16.4774 21.7106C20.3882 21.7106 23.5585 24.881 23.5585 28.7918C23.5585 32.7025 20.3882 35.8729 16.4774 35.8729C12.5666 35.8729 9.39626 32.7025 9.39626 28.7918ZM49.5225 26.4314C48.2189 26.4314 47.1622 27.4882 47.1622 28.7918C47.1622 30.0953 48.2189 31.1521 49.5225 31.1521C50.8261 31.1521 51.8829 30.0953 51.8829 28.7918C51.8829 27.4882 50.8261 26.4314 49.5225 26.4314ZM42.4414 28.7918C42.4414 24.881 45.6117 21.7106 49.5225 21.7106C53.4333 21.7106 56.6036 24.881 56.6036 28.7918C56.6036 32.7025 53.4333 35.8729 49.5225 35.8729C45.6117 35.8729 42.4414 32.7025 42.4414 28.7918ZM33 38.2332C29.0285 38.2332 25.6242 40.6861 24.2303 44.1684C23.7976 45.2493 23.5585 46.4312 23.5585 47.6747V50.0351H42.4414V47.6747C42.4414 46.4312 42.2023 45.2493 41.7696 44.1684C40.3757 40.6861 36.9714 38.2332 33 38.2332ZM47.1622 50.0351H54.2433V47.6747C54.2433 45.0675 52.1297 42.954 49.5225 42.954C48.446 42.954 47.4541 43.3129 46.6588 43.9211C46.9872 45.1184 47.1622 46.3775 47.1622 47.6747V50.0351ZM44.6333 39.5967C42.0766 35.9214 37.8215 33.5125 33 33.5125C28.1784 33.5125 23.9233 35.9214 21.3666 39.5967C19.941 38.7322 18.2672 38.2332 16.4774 38.2332C11.263 38.2332 7.03589 42.4603 7.03589 47.6747V52.3954C7.03589 53.699 8.09266 54.7558 9.39626 54.7558H56.6036C57.9072 54.7558 58.964 53.699 58.964 52.3954V47.6747C58.964 42.4603 54.7369 38.2332 49.5225 38.2332C47.7327 38.2332 46.0589 38.7322 44.6333 39.5967ZM19.3411 43.9211C18.5458 43.3129 17.5539 42.954 16.4774 42.954C13.8702 42.954 11.7566 45.0675 11.7566 47.6747V50.0351H18.8377V47.6747C18.8377 46.3775 19.0127 45.1184 19.3411 43.9211Z" fill="#071952"/>
</g>
</svg>
