<svg width="60" height="32" viewBox="0 0 60 32" fill="none" xmlns="http://www.w3.org/2000/svg">
<g id="Component 4">
<path id="Vector" d="M0.00048384 28.5002H1.98824V20.6503L5.06569 27.4937C5.42859 28.3221 5.92553 28.6148 6.90054 28.6148C7.87555 28.6148 8.35362 28.3221 8.71652 27.4937L11.794 20.6503V28.5002H13.7817V20.6633C13.7817 19.8988 13.4759 19.5286 12.8449 19.338C11.3348 18.8667 10.3215 19.2746 9.86282 20.2941L6.84296 27.048L3.9189 20.2936C3.47906 19.2746 2.44696 18.8667 0.936782 19.3375C0.305809 19.5286 0 19.8983 0 20.6628L0.00048384 28.5002ZM15.4351 22.1101H17.4224V26.435C17.404 26.6697 17.4979 27.2213 18.5866 27.2387C19.1421 27.2474 22.8747 27.2387 22.9095 27.2387V22.0888H24.9017C24.9108 22.0888 24.8997 29.1118 24.8997 29.1408C24.9104 30.8731 22.7508 31.249 21.755 31.2781H15.4782V29.9406C15.4888 29.9406 21.7507 29.9421 21.7661 29.9402C23.046 29.8052 22.8945 29.1694 22.8941 28.9555V28.4339H18.6693C16.7038 28.416 15.4516 27.5581 15.4356 26.5709C15.4346 26.4805 15.4787 22.1537 15.4351 22.1101Z" fill="#00618A"/>
<path id="Vector_2" d="M26.4341 28.5002H32.1496C32.8188 28.5002 33.4691 28.3603 33.9849 28.1184C34.8448 27.7236 35.2653 27.1884 35.2653 26.4868V25.0342C35.2653 24.4608 34.7877 23.9252 33.8509 23.569C33.354 23.3774 32.7419 23.2763 32.1491 23.2763H29.7404C28.9377 23.2763 28.5554 23.0343 28.4601 22.4992C28.4412 22.4353 28.4412 22.3845 28.4412 22.3206V21.4158C28.4412 21.365 28.4412 21.3137 28.4601 21.2503C28.5554 20.8424 28.7659 20.7277 29.4733 20.6638L29.6644 20.6513H35.3417V19.3264H29.7602C28.9575 19.3264 28.537 19.3772 28.1547 19.4919C26.9697 19.8616 26.453 20.4475 26.453 21.4671V22.6264C26.453 23.5187 27.4667 24.2832 29.1675 24.4618C29.3591 24.4739 29.5498 24.4874 29.7409 24.4874H31.8056C31.882 24.4874 31.9585 24.4874 32.0161 24.4995C32.647 24.5503 32.9141 24.6655 33.1057 24.8944C33.2204 25.009 33.2582 25.1242 33.2582 25.251V26.4108C33.2582 26.5507 33.1628 26.7292 32.9717 26.8821C32.7999 27.035 32.513 27.1371 32.1307 27.1628L31.9203 27.1753H26.4341V28.5002ZM47.667 26.194C47.667 27.5571 48.6802 28.3216 50.7251 28.475C50.9162 28.4876 51.1073 28.5002 51.2985 28.5002H56.4788V27.1753H51.2607C50.0946 27.1753 49.6552 26.8821 49.6552 26.181V19.3254H47.6675L47.667 26.194ZM36.534 26.2628V21.5377C36.534 20.3377 37.3769 19.6095 39.0434 19.3796C39.2156 19.354 39.4077 19.3414 39.5795 19.3414H43.3532C43.5449 19.3414 43.7171 19.354 43.9083 19.3796C45.5747 19.6095 46.4181 20.3372 46.4181 21.5377V26.2628C46.4181 27.2373 46.06 27.7579 45.235 28.0976L47.1938 29.8652H44.8852L43.301 28.4349L41.7061 28.536H39.5795C39.2156 28.536 38.8329 28.4852 38.4114 28.37C37.1471 28.0255 36.534 27.3611 36.534 26.2628ZM38.6795 26.1481C38.6795 26.2119 38.6984 26.2763 38.7177 26.3528C38.8324 26.9019 39.3502 27.2082 40.135 27.2082H41.9408L40.2821 25.7107H42.5907L44.037 27.0171C44.3041 26.8744 44.4792 26.6576 44.5407 26.3784C44.5595 26.3145 44.5595 26.2507 44.5595 26.1868V21.6538C44.5595 21.603 44.5595 21.5387 44.5407 21.4748C44.4255 20.9638 43.9083 20.6706 43.1423 20.6706H40.1345C39.2539 20.6706 38.679 21.0538 38.679 21.6538L38.6795 26.1481Z" fill="#E48E00"/>
<path id="Vector_3" d="M58.2276 17.1262C57.0058 17.0929 56.0724 17.2066 55.2741 17.5429C55.0471 17.6387 54.6857 17.6411 54.6489 17.9251C54.7732 18.0563 54.7926 18.2513 54.8918 18.4119C55.0824 18.7201 55.4042 19.1334 55.6912 19.3496C56.0042 19.5863 56.3274 19.8398 56.6642 20.045C57.2618 20.4098 57.9296 20.6179 58.5059 20.9827C58.8451 21.1985 59.1818 21.4695 59.5133 21.7129C59.6773 21.8324 59.7867 22.0197 60.0001 22.0947V22.0603C59.8883 21.9181 59.8593 21.7226 59.7567 21.5735L59.3047 21.1216C58.863 20.5351 58.3026 20.0208 57.706 19.593C57.2308 19.2519 56.1673 18.7908 55.9689 18.2377L55.9341 18.2034C56.2708 18.1651 56.6657 18.0432 56.9763 17.96C57.4989 17.8196 57.9659 17.8559 58.5054 17.7166L59.2351 17.5075V17.3692C58.9626 17.0895 58.7676 16.7188 58.4705 16.4658C57.6929 15.8033 56.8433 15.1414 55.9689 14.5888C55.4841 14.283 54.8845 14.0841 54.3702 13.8248C54.1979 13.7372 53.894 13.6922 53.7794 13.5465C53.5089 13.2025 53.3623 12.7665 53.1537 12.3654C52.7182 11.5259 52.2895 10.6084 51.9029 9.72441C51.6397 9.12199 51.4674 8.52779 51.1389 7.9873C49.5609 5.39325 47.8625 3.82743 45.2317 2.28871C44.6719 1.96112 43.9978 1.83241 43.2861 1.66354L42.1393 1.59386C41.9065 1.4966 41.6636 1.21112 41.4444 1.07273C40.5725 0.52208 38.337 -0.675511 37.6915 0.899502C37.2841 1.89338 38.3012 2.86307 38.6646 3.36678C38.9196 3.72001 39.2467 4.11582 39.4291 4.51308C39.5491 4.77437 39.5694 5.03615 39.6725 5.31244C39.9246 5.99277 40.1447 6.73358 40.4714 7.36213C40.6364 7.68052 40.8188 8.01585 41.0273 8.30037C41.1551 8.47456 41.3747 8.55198 41.4091 8.8215C41.1947 9.1215 41.1822 9.58796 41.0617 9.9678C40.5188 11.6802 40.7234 13.8088 41.5136 15.0761C41.756 15.4656 42.327 16.2998 43.1119 15.9795C43.7985 15.6998 43.6456 14.8332 43.842 14.0682C43.8865 13.8954 43.859 13.7677 43.9461 13.6515V13.6864L44.5717 14.9372C45.0348 15.6828 45.8559 16.4614 46.5522 16.9874C46.9132 17.2598 47.1977 17.7316 47.6642 17.8908V17.8554H47.6298C47.5388 17.7146 47.398 17.6566 47.2819 17.5429C47.01 17.2762 46.7075 16.9453 46.483 16.6395C45.8496 15.7801 45.2903 14.839 44.7803 13.8596C44.5369 13.3922 44.3254 12.8764 44.1203 12.4002C44.0409 12.2169 44.0419 11.9391 43.8773 11.8448C43.6519 12.1931 43.3214 12.4752 43.1472 12.887C42.8694 13.5451 42.8336 14.3478 42.7306 15.1801L42.6609 15.2145C42.1765 15.0978 42.0067 14.5995 41.8267 14.1722C41.3718 13.0917 41.2872 11.3512 41.6878 10.1072C41.7914 9.78489 42.2593 8.77118 42.0696 8.47359C41.9791 8.17698 41.6806 8.00569 41.5141 7.77827C41.3075 7.4981 41.1009 7.12939 40.9581 6.8052C40.5855 5.96277 40.4118 5.01679 40.0204 4.16469C39.8326 3.75727 39.5162 3.34549 39.2559 2.98355C38.968 2.58193 38.6452 2.28677 38.4217 1.80193C38.3423 1.62967 38.2344 1.35338 38.352 1.17628C38.3892 1.05676 38.4429 1.00692 38.561 0.967727C38.7623 0.812404 39.3236 1.0195 39.5336 1.1066C40.091 1.33838 40.556 1.55854 41.0283 1.87112C41.2547 2.02161 41.4836 2.31193 41.758 2.39226H42.0706C42.5598 2.50451 43.108 2.42661 43.5648 2.56548C44.3728 2.81129 45.0967 3.19307 45.7538 3.60823C47.7566 4.87308 49.3935 6.6731 50.5142 8.82053C50.6942 9.1665 50.7726 9.49602 50.9308 9.8628C51.2511 10.6022 51.6547 11.3633 51.9731 12.0867C52.291 12.8081 52.6011 13.5364 53.0506 14.1369C53.2868 14.4524 54.1994 14.6217 54.614 14.7969C54.9049 14.9198 55.381 15.048 55.6563 15.2135C56.1823 15.5309 56.6923 15.9088 57.1854 16.2562C57.4317 16.4314 58.1899 16.8122 58.2276 17.1262ZM42.6957 3.88791C42.4412 3.88307 42.2607 3.91598 42.0701 3.95759V3.99195H42.1049C42.2264 4.24211 42.4407 4.40276 42.5912 4.6176L42.9391 5.34728L42.9735 5.31292C43.1888 5.16147 43.287 4.91905 43.2861 4.5484C43.1994 4.45743 43.1869 4.34372 43.1123 4.23582C43.0136 4.09066 42.821 4.00936 42.6957 3.88791Z" fill="#00618A"/>
</g>
</svg>
