<svg width="60" height="37" viewBox="0 0 60 37" fill="none" xmlns="http://www.w3.org/2000/svg">
<g id="Component 3">
<path id="Vector" d="M14.1575 10.0395H25.474V10.939H15.1948V17.7086H24.861V18.608H15.1948V26.0404H25.5919V26.9398H14.1575V10.0395ZM26.4878 10.0395H27.6902L33.0184 17.4719L38.4645 10.0395L45.8721 0.598755L33.7021 18.253L39.9734 26.9398H38.7238L33.0184 19.0341L27.2894 26.9398H26.0634L32.3818 18.253L26.4878 10.0395ZM40.4213 10.939V10.0395H53.3175V10.939H47.3763V26.9398H46.3389V10.939H40.4213ZM0 10.0395H1.29669L19.1773 36.7961L11.7881 26.9398L1.0845 11.3177L1.03735 26.9398H0L0 10.0395ZM53.2129 25.7689C53.001 25.7689 52.842 25.6047 52.842 25.3925C52.842 25.1803 53.001 25.0161 53.2129 25.0161C53.4274 25.0161 53.5838 25.1803 53.5838 25.3925C53.5838 25.6047 53.4274 25.7689 53.2129 25.7689ZM54.2323 24.7786H54.7873C54.7949 25.0792 55.0144 25.2813 55.3374 25.2813C55.6982 25.2813 55.9025 25.0641 55.9025 24.6573V22.0804H56.4677V24.6599C56.4677 25.3925 56.0438 25.8144 55.3424 25.8144C54.6839 25.8144 54.2323 25.4051 54.2323 24.7786ZM57.207 24.7458H57.7671C57.815 25.0919 58.1531 25.3117 58.6401 25.3117C59.0942 25.3117 59.4273 25.0767 59.4273 24.7533C59.4273 24.4754 59.2153 24.3087 58.7334 24.195L58.2641 24.0813C57.6056 23.9272 57.3054 23.6089 57.3054 23.0733C57.3054 22.424 57.8352 21.992 58.63 21.992C59.3692 21.992 59.9092 22.424 59.942 23.0379H59.3919C59.339 22.7019 59.0463 22.4922 58.6224 22.4922C58.1758 22.4922 57.8781 22.707 57.8781 23.0354C57.8781 23.2956 58.0698 23.4447 58.5442 23.5558L58.9454 23.6544C59.6922 23.8287 60 24.1318 60 24.6801C60 25.3773 59.4601 25.8144 58.5972 25.8144C57.7898 25.8144 57.2473 25.3976 57.207 24.7458Z" fill="black"/>
</g>
</svg>
