<svg width="60" height="61" viewBox="0 0 60 61" fill="none" xmlns="http://www.w3.org/2000/svg">
<g id="Component 2">
<path id="Vector" d="M57.1886 0.697388H2.81143C1.25872 0.697388 0 1.95611 0 3.50882V57.886C0 59.4387 1.25872 60.6974 2.81143 60.6974H57.1886C58.7413 60.6974 60 59.4387 60 57.886V3.50882C60 1.95611 58.7413 0.697388 57.1886 0.697388Z" fill="#3178C6"/>
<path id="Vector_2" fill-rule="evenodd" clip-rule="evenodd" d="M34.8107 47.324V53.8983C36.0053 54.4879 37.2782 54.9029 38.5907 55.1305C40.1074 55.4105 41.647 55.5482 43.1893 55.5419C44.6925 55.549 46.1922 55.3975 47.6636 55.0898C48.9846 54.8228 50.245 54.3143 51.3815 53.5898C52.4365 52.9087 53.306 51.9766 53.9122 50.8769C54.9978 48.5997 55.141 45.9862 54.3107 43.604C53.9604 42.7132 53.4383 41.9 52.7743 41.2105C52.0616 40.4773 51.2519 39.845 50.3679 39.3312C49.3501 38.7351 48.2926 38.2096 47.2029 37.7583C46.3457 37.4026 45.5743 37.0569 44.8886 36.7212C44.2796 36.4296 43.6967 36.0862 43.1465 35.6948C42.7155 35.3926 42.3412 35.0169 42.0407 34.5848C41.7812 34.1924 41.646 33.7309 41.6529 33.2605C41.6472 32.8275 41.7678 32.4023 42 32.0369C42.2522 31.6545 42.5887 31.3349 42.9836 31.1026C43.4663 30.8184 43.9916 30.6137 44.5393 30.4962C45.2118 30.3468 45.8991 30.2749 46.5879 30.2819C47.1672 30.2839 47.7457 30.3254 48.3193 30.4062C48.9388 30.4899 49.5517 30.6167 50.1536 30.7855C50.7658 30.9552 51.3646 31.17 51.945 31.4283C52.5082 31.6794 53.047 31.9821 53.5543 32.3326V26.1976C52.4981 25.798 51.4028 25.5107 50.2865 25.3405C48.9384 25.1443 47.5772 25.0519 46.215 25.064C44.726 25.056 43.2413 25.2251 41.7922 25.5676C40.4823 25.8669 39.2369 26.3989 38.115 27.1383C37.0729 27.8325 36.2124 28.7665 35.6057 29.8619C34.9628 31.0783 34.6447 32.4401 34.6822 33.8155C34.6347 35.6343 35.2338 37.411 36.3729 38.8298C37.7704 40.4028 39.5327 41.6088 41.505 42.3419C42.405 42.7133 43.2443 43.0769 44.0229 43.4326C44.7253 43.7452 45.4005 44.1158 46.0415 44.5405C46.5584 44.8767 47.0124 45.301 47.3829 45.794C47.7086 46.2412 47.8815 46.7815 47.8757 47.3348C47.8787 47.7493 47.7723 48.1573 47.5672 48.5176C47.3393 48.9048 47.019 49.2295 46.635 49.4626C46.1545 49.7556 45.6288 49.967 45.0793 50.0883C44.3635 50.2484 43.6313 50.3239 42.8979 50.3133C41.4585 50.3107 40.0307 50.0569 38.6786 49.5633C37.2661 49.0536 35.9561 48.2952 34.8107 47.324ZM23.7665 30.9569H32.3379V25.5419H8.4386V30.9569H16.9715V55.0726H23.7665V30.9569Z" fill="white"/>
</g>
</svg>
